<svg width="221" height="254" viewBox="0 0 221 254" fill="none" xmlns="http://www.w3.org/2000/svg">
<path fill-rule="evenodd" clip-rule="evenodd" d="M187.584 40.2871L159.642 57.1718L192.806 74.377L190.714 111.616L217.97 93.8081L220.555 56.7995L220.595 56.7739L187.584 40.2871Z" fill="#FBFBFB" fill-opacity="0.08"/>
<path fill-rule="evenodd" clip-rule="evenodd" d="M150.538 52.4549L178.068 35.6528L180.506 36.755L146.919 19.9846L118.941 36.0642L150.538 52.4549Z" fill="#FBFBFB" fill-opacity="0.08"/>
<path fill-rule="evenodd" clip-rule="evenodd" d="M108.918 30.8623L137.28 15.1666L106.911 0L78.48 15.7098L79.1221 15.4027L108.918 30.8623Z" fill="#FBFBFB" fill-opacity="0.08"/>
<path fill-rule="evenodd" clip-rule="evenodd" d="M99.5135 36.064L69.6642 20.5825L41.2046 36.3079L70.3366 52.2066L99.5135 36.064Z" fill="#FBFBFB" fill-opacity="0.08"/>
<path fill-rule="evenodd" clip-rule="evenodd" d="M30.2773 74.377L60.7779 57.4964L31.5856 41.6213L0.0451919 59.0512L0 59.0217L1.46499 95.731L31.1692 113.269L30.2773 74.377Z" fill="#FBFBFB" fill-opacity="0.08"/>
<path fill-rule="evenodd" clip-rule="evenodd" d="M31.362 121.527L1.78931 103.833L3.22981 140.031L32.196 157.972L31.362 121.527Z" fill="#FBFBFB" fill-opacity="0.08"/>
<path fill-rule="evenodd" clip-rule="evenodd" d="M32.4415 168.6L3.65601 150.836L5.01365 184.841L34.5429 203.844L33.2229 202.881L32.4415 168.6Z" fill="#FBFBFB" fill-opacity="0.08"/>
<path fill-rule="evenodd" clip-rule="evenodd" d="M42.8975 209.22L72.8051 228.464V193.518L42.3325 174.713L42.8975 209.22Z" fill="#FBFBFB" fill-opacity="0.08"/>
<path fill-rule="evenodd" clip-rule="evenodd" d="M81.3355 198.785L81.2263 233.889L112.382 253.938L141.463 233.07L142.463 198.693L113.644 218.729L81.3355 198.785Z" fill="#FBFBFB" fill-opacity="0.08"/>
<path fill-rule="evenodd" clip-rule="evenodd" d="M149.03 227.641L177.678 207.087L179.243 173.115L150.491 193.112L149.03 227.641Z" fill="#FBFBFB" fill-opacity="0.08"/>
<path fill-rule="evenodd" clip-rule="evenodd" d="M185.66 201.365L211.753 182.645L214.116 148.872L187.575 167.327L185.66 201.365Z" fill="#FBFBFB" fill-opacity="0.08"/>
<path fill-rule="evenodd" clip-rule="evenodd" d="M188.182 156.589L214.284 138.628L217.374 102.284L190.223 120.204L188.182 156.589Z" fill="#FBFBFB" fill-opacity="0.08"/>
<path fill-rule="evenodd" clip-rule="evenodd" d="M150.944 182.209L179.733 162.4L181.407 126.025L152.511 145.102L150.944 182.209Z" fill="#FBFBFB" fill-opacity="0.08"/>
<path fill-rule="evenodd" clip-rule="evenodd" d="M121.573 80.1763L154.489 98.1433L152.879 136.325L181.804 117.435L183.542 79.6604L150.659 62.6008L121.573 80.1763Z" fill="#FBFBFB" fill-opacity="0.08"/>
<path fill-rule="evenodd" clip-rule="evenodd" d="M80.8635 57.9518L112.89 75.4346L141.609 57.9004L109.73 41.3623L80.8635 57.9518Z" fill="#FBFBFB" fill-opacity="0.08"/>
<path fill-rule="evenodd" clip-rule="evenodd" d="M71.5019 63.3279L40.7998 80.98L41.4269 119.327L72.8033 137.845V99.9032L103.873 80.9361L71.5019 63.3279Z" fill="#FBFBFB" fill-opacity="0.08"/>
<path fill-rule="evenodd" clip-rule="evenodd" d="M42.1644 164.146L72.8062 183.125V146.321L41.5671 127.632L42.1644 164.146Z" fill="#FBFBFB" fill-opacity="0.08"/>
<path fill-rule="evenodd" clip-rule="evenodd" d="M81.4948 151.52L81.3762 188.438L113.227 208.165L142.779 187.83L143.854 150.817L113.647 170.762L81.4948 151.52Z" fill="#FBFBFB" fill-opacity="0.08"/>
<path fill-rule="evenodd" clip-rule="evenodd" d="M81.6443 104.305L81.52 142.991L113.644 161.956L144.107 142.06L145.224 103.423L112.526 85.6433L81.6443 104.305Z" fill="#FBFBFB" fill-opacity="0.08"/>
</svg>
