<svg width="50" height="50" viewBox="0 0 50 50" fill="none" xmlns="http://www.w3.org/2000/svg">
<path fill-rule="evenodd" clip-rule="evenodd" d="M39.6587 10.0721L34.359 13.1986L40.649 16.3844L40.2522 23.2798L45.4219 19.9824L45.9122 13.1297L45.9197 13.1249L39.6587 10.0721Z" fill="#FBFBFB" fill-opacity="0.08"/>
<path fill-rule="evenodd" clip-rule="evenodd" d="M32.6324 12.3252L37.8538 9.21397L38.3163 9.41805L31.9459 6.31274L26.6395 9.29014L32.6324 12.3252Z" fill="#FBFBFB" fill-opacity="0.08"/>
<path fill-rule="evenodd" clip-rule="evenodd" d="M24.7385 8.32696L30.1178 5.42065L24.3578 2.6123L18.9653 5.52123L19.0871 5.46437L24.7385 8.32696Z" fill="#FBFBFB" fill-opacity="0.08"/>
<path fill-rule="evenodd" clip-rule="evenodd" d="M22.9547 9.29012L17.2932 6.42346L11.8954 9.33528L17.4208 12.2792L22.9547 9.29012Z" fill="#FBFBFB" fill-opacity="0.08"/>
<path fill-rule="evenodd" clip-rule="evenodd" d="M9.82281 16.3845L15.6078 13.2587L10.0709 10.3192L4.08877 13.5466L4.0802 13.5412L4.35806 20.3385L9.99198 23.586L9.82281 16.3845Z" fill="#FBFBFB" fill-opacity="0.08"/>
<path fill-rule="evenodd" clip-rule="evenodd" d="M10.0285 25.115L4.41956 21.8387L4.69277 28.5414L10.1867 31.8635L10.0285 25.115Z" fill="#FBFBFB" fill-opacity="0.08"/>
<path fill-rule="evenodd" clip-rule="evenodd" d="M10.2333 33.8315L4.77368 30.5421L5.03118 36.8387L10.6319 40.3573L10.3816 40.1791L10.2333 33.8315Z" fill="#FBFBFB" fill-opacity="0.08"/>
<path fill-rule="evenodd" clip-rule="evenodd" d="M12.2164 41.3528L17.8889 44.9162V38.4454L12.1093 34.9633L12.2164 41.3528Z" fill="#FBFBFB" fill-opacity="0.08"/>
<path fill-rule="evenodd" clip-rule="evenodd" d="M19.5069 39.4206L19.4862 45.9207L25.3955 49.6331L30.9112 45.769L31.1009 39.4036L25.6348 43.1135L19.5069 39.4206Z" fill="#FBFBFB" fill-opacity="0.08"/>
<path fill-rule="evenodd" clip-rule="evenodd" d="M32.3462 44.7637L37.7798 40.958L38.0766 34.6675L32.6233 38.3702L32.3462 44.7637Z" fill="#FBFBFB" fill-opacity="0.08"/>
<path fill-rule="evenodd" clip-rule="evenodd" d="M39.2939 39.8984L44.2429 36.432L44.6911 30.1783L39.6571 33.5956L39.2939 39.8984Z" fill="#FBFBFB" fill-opacity="0.08"/>
<path fill-rule="evenodd" clip-rule="evenodd" d="M39.7721 31.6073L44.7228 28.2815L45.3088 21.5519L40.1592 24.87L39.7721 31.6073Z" fill="#FBFBFB" fill-opacity="0.08"/>
<path fill-rule="evenodd" clip-rule="evenodd" d="M32.7092 36.3514L38.1696 32.6834L38.4871 25.948L33.0064 29.4804L32.7092 36.3514Z" fill="#FBFBFB" fill-opacity="0.08"/>
<path fill-rule="evenodd" clip-rule="evenodd" d="M27.1384 17.4582L33.3816 20.7851L33.0763 27.8551L38.5624 24.3573L38.892 17.3627L32.6552 14.2039L27.1384 17.4582Z" fill="#FBFBFB" fill-opacity="0.08"/>
<path fill-rule="evenodd" clip-rule="evenodd" d="M19.4174 13.3431L25.4917 16.5803L30.9388 13.3335L24.8924 10.2712L19.4174 13.3431Z" fill="#FBFBFB" fill-opacity="0.08"/>
<path fill-rule="evenodd" clip-rule="evenodd" d="M17.6418 14.3385L11.8186 17.6071L11.9375 24.7076L17.8886 28.1366V21.111L23.7815 17.599L17.6418 14.3385Z" fill="#FBFBFB" fill-opacity="0.08"/>
<path fill-rule="evenodd" clip-rule="evenodd" d="M12.0774 33.0067L17.8891 36.5209V29.706L11.9641 26.2454L12.0774 33.0067Z" fill="#FBFBFB" fill-opacity="0.08"/>
<path fill-rule="evenodd" clip-rule="evenodd" d="M19.5371 30.6687L19.5146 37.5047L25.5557 41.1574L31.1607 37.3921L31.3647 30.5386L25.6354 34.2317L19.5371 30.6687Z" fill="#FBFBFB" fill-opacity="0.08"/>
<path fill-rule="evenodd" clip-rule="evenodd" d="M19.5654 21.9261L19.5419 29.0894L25.6348 32.6011L31.4126 28.917L31.6244 21.7628L25.4226 18.4706L19.5654 21.9261Z" fill="#FBFBFB" fill-opacity="0.08"/>
<path d="M13.4649 21.5977H19.5879V22.7988H14.6661V25.2012H18.8672V26.4023H14.6661V28.7988H19.5879V30H13.4649V21.5977ZM20.6661 21.5977H27.3868V22.7988H24.627V30H23.4258V22.7988H20.6661V21.5977ZM28.8282 22.7988C28.8282 22.6348 28.8594 22.4805 28.9219 22.3359C28.9844 22.1875 29.0704 22.0605 29.1797 21.9551C29.2891 21.8457 29.4161 21.7598 29.5606 21.6973C29.709 21.6309 29.8653 21.5977 30.0293 21.5977H34.5879C34.752 21.5977 34.9063 21.6309 35.0508 21.6973C35.1993 21.7598 35.3282 21.8457 35.4375 21.9551C35.5469 22.0605 35.6329 22.1875 35.6954 22.3359C35.7579 22.4805 35.7891 22.6348 35.7891 22.7988V23.8828H34.5879V22.7988H30.0293V28.7988H34.5879V27.7207H35.7891V28.7988C35.7891 28.9629 35.7579 29.1191 35.6954 29.2676C35.6329 29.4121 35.5469 29.5391 35.4375 29.6484C35.3282 29.7578 35.1993 29.8438 35.0508 29.9062C34.9063 29.9688 34.752 30 34.5879 30H30.0293C29.8653 30 29.709 29.9688 29.5606 29.9062C29.4161 29.8438 29.2891 29.7578 29.1797 29.6484C29.0704 29.5391 28.9844 29.4121 28.9219 29.2676C28.8594 29.1191 28.8282 28.9629 28.8282 28.7988V22.7988Z" fill="white"/>
</svg>
