<svg width="690" height="121" viewBox="0 0 690 121" fill="none" xmlns="http://www.w3.org/2000/svg">
<path d="M0.745605 118C1.99886 105.012 2.85335 94.6154 3.30908 86.811C3.99268 75.1899 4.67627 60.1509 5.35986 41.6938C5.87256 27.5662 6.12891 17.4548 6.12891 11.3594V1.36182C12.7939 1.53271 18.5475 1.61816 23.3896 1.61816C28.0609 1.61816 34.1847 1.50423 41.7612 1.27637C49.3377 0.991536 56.4585 0.849121 63.1235 0.849121C70.757 0.849121 77.4505 1.30485 83.2041 2.21631C88.9577 3.12777 94.3125 5.00765 99.2686 7.85596C104.282 10.7043 108.469 14.4355 111.83 19.0498C115.191 23.6641 117.754 29.0758 119.52 35.2852C121.286 41.4375 122.169 47.7892 122.169 54.3403C122.169 60.7775 121.485 66.9868 120.118 72.9683C118.751 78.8927 116.843 84.2476 114.393 89.0327C111.944 93.8179 109.067 97.9479 105.763 101.423C102.516 104.841 98.7843 107.775 94.5688 110.224C91.4357 112.047 88.2741 113.471 85.084 114.497C81.8939 115.522 77.536 116.348 72.0103 116.975C65.8579 117.658 58.8796 118 51.0752 118L16.5537 117.744C13.3066 117.744 8.03727 117.829 0.745605 118ZM37.6597 92.2798C40.7928 92.5646 44.0684 92.707 47.4863 92.707C53.2969 92.707 58.4808 92.1943 63.0381 91.1689C67.5954 90.1436 71.583 87.9504 75.001 84.5894C78.4759 81.2284 81.0394 76.9274 82.6914 71.6865C84.3434 66.3887 85.1694 60.9769 85.1694 55.4512C85.1694 48.6722 83.9447 42.9756 81.4951 38.3613C79.0456 33.6901 75.77 30.443 71.6685 28.6201C67.6239 26.7972 62.0981 25.8857 55.0913 25.8857C50.9897 25.8857 46.1476 26.0566 40.5649 26.3984L37.6597 92.2798ZM210.746 92.1943C210.005 95.6123 208.581 103.872 206.473 116.975C199.865 118.285 194.311 119.139 189.811 119.538C185.31 119.994 180.753 120.222 176.139 120.222C169.36 120.222 163.122 119.737 157.425 118.769C151.729 117.858 146.801 116.206 142.643 113.813C138.541 111.42 135.095 108.458 132.303 104.926C129.512 101.337 127.376 97.0934 125.895 92.1943C124.47 87.2952 123.758 82.2537 123.758 77.0698C123.758 69.7782 125.211 62.6574 128.116 55.7075C131.021 48.7007 134.753 43.2319 139.31 39.3013C143.924 35.3706 149.222 32.5793 155.204 30.9272C161.185 29.2752 167.309 28.4492 173.575 28.4492C180.069 28.4492 186.25 29.2183 192.118 30.7563C198.042 32.2375 203.055 34.8579 207.157 38.6177C211.258 42.3774 214.164 46.6214 215.873 51.3496C217.639 56.0778 218.521 61.1763 218.521 66.645C218.521 69.8921 218.151 73.5094 217.411 77.4971L157.511 77.5825C157.454 78.494 157.425 79.32 157.425 80.0605C157.425 86.2129 159.618 90.7417 164.005 93.647C168.391 96.5522 173.746 98.0049 180.069 98.0049C183.829 98.0049 188.102 97.5776 192.887 96.7231C197.729 95.8117 203.682 94.3021 210.746 92.1943ZM158.194 64.5088H186.393C186.45 63.5404 186.478 62.7144 186.478 62.0308C186.478 59.0685 185.937 56.5335 184.854 54.4258C183.829 52.318 182.319 50.7799 180.326 49.8115C178.389 48.8431 176.196 48.3589 173.746 48.3589C172.037 48.3589 170.385 48.6437 168.79 49.2134C167.195 49.7261 165.742 50.5236 164.432 51.606C163.179 52.6313 162.125 53.8276 161.271 55.1948C160.416 56.562 159.789 57.9007 159.391 59.2109C158.992 60.4642 158.593 62.2301 158.194 64.5088ZM244.464 118L235.406 89.9727L214.984 30.7563C221.478 30.8703 227.516 30.9272 233.099 30.9272C238.91 30.9272 244.378 30.8703 249.505 30.7563C250.474 34.687 252.382 41.5799 255.23 51.4351C258.079 61.2332 261.212 72.9113 264.63 86.4692L266.852 79.377C267.193 78.5225 268.532 74.8766 270.868 68.4395L284.454 30.7563C290.606 30.8703 296.417 30.9272 301.886 30.9272C307.525 30.9272 313.393 30.8703 319.488 30.7563L307.696 56.1348L285.736 106.55L281.036 118C274.314 117.886 268.39 117.829 263.263 117.829C257.68 117.829 251.414 117.886 244.464 118ZM315.353 118L318.001 80.0605L318.856 58.271C318.913 54.3403 318.941 50.3242 318.941 46.2227C318.941 42.0641 318.884 36.9087 318.771 30.7563C325.663 30.8703 331.132 30.9272 335.177 30.9272C339.905 30.9272 345.345 30.8703 351.498 30.7563L351.156 40.4121C353.377 37.9056 355.2 36.0542 356.625 34.8579C358.049 33.6047 359.672 32.4938 361.495 31.5254C363.318 30.5 365.226 29.7594 367.22 29.3037C369.214 28.791 371.293 28.5347 373.458 28.5347C375.509 28.5347 377.787 28.8195 380.294 29.3892C380.351 35.5985 380.493 40.7254 380.721 44.77L381.319 57.9292C378.186 57.0177 375.252 56.562 372.518 56.562C369.1 56.562 366.138 57.0747 363.631 58.1001C361.182 59.0685 358.989 60.5781 357.052 62.6289C355.172 64.6227 353.662 67.1292 352.523 70.1484C351.384 73.1676 350.586 77.9528 350.13 84.5039C349.675 91.055 349.447 98.5461 349.447 106.977C349.447 109.939 349.561 113.614 349.789 118C344.263 117.886 338.709 117.829 333.126 117.829C327.6 117.829 321.676 117.886 315.353 118ZM389.916 55.6221C390.998 49.9824 391.681 46.1087 391.966 44.001C392.251 41.8363 392.707 38.4753 393.333 33.918C409.74 30.3291 423.839 28.5347 435.631 28.5347C442.353 28.5347 448.505 29.3037 454.088 30.8418C459.671 32.3229 464.028 34.744 467.162 38.105C470.295 41.466 471.861 46.2796 471.861 52.5459C471.861 55.736 471.434 62.9137 470.58 74.0791C469.725 85.2445 469.07 99.8848 468.614 118C463.032 117.886 457.477 117.829 451.952 117.829C446.597 117.829 440.9 117.886 434.862 118C435.659 111.734 436.542 98.8024 437.511 79.2061C435.346 80.2314 433.637 80.972 432.384 81.4277C431.188 81.8835 429.051 82.5671 425.975 83.4785C422.899 84.39 420.478 85.159 418.712 85.7856C417.003 86.4123 415.493 87.2098 414.183 88.1782C412.93 89.1466 412.018 90.1436 411.449 91.1689C410.936 92.1943 410.68 93.3337 410.68 94.5869C410.68 96.5238 411.449 98.1758 412.987 99.543C414.525 100.91 416.974 101.594 420.335 101.594C421.532 101.594 422.813 101.508 424.181 101.337C425.548 101.11 427.428 100.597 429.82 99.7993C428.168 104.186 426.203 110.594 423.924 119.025C419.025 119.823 414.382 120.222 409.996 120.222C402.932 120.222 397.036 119.253 392.308 117.316C387.637 115.323 384.02 112.132 381.456 107.746C378.95 103.36 377.696 98.9733 377.696 94.5869C377.696 91.9095 378.152 89.2891 379.063 86.7256C380.032 84.1621 381.513 81.6556 383.507 79.2061C385.501 76.7565 387.836 74.6772 390.514 72.9683C393.191 71.2023 396.837 69.5503 401.451 68.0122C406.122 66.4741 412.018 65.0215 419.139 63.6543C422.101 63.0846 424.807 62.4865 427.257 61.8599C429.763 61.1763 431.529 60.6066 432.555 60.1509C433.637 59.6382 434.492 59.0685 435.118 58.4419C435.802 57.7583 436.286 57.0747 436.571 56.3911C436.856 55.6506 436.998 54.8815 436.998 54.084C436.998 51.9193 436.087 50.2673 434.264 49.1279C432.441 47.9316 429.763 47.3335 426.231 47.3335C416.433 47.3335 404.328 50.0964 389.916 55.6221ZM478.236 118C479.888 105.069 481.141 90.7987 481.996 75.1899C482.907 59.5243 483.448 44.7131 483.619 30.7563C490.455 30.8703 496.351 30.9272 501.307 30.9272C507.061 30.9272 512.586 30.8703 517.884 30.7563L517.03 42.3774C518.91 40.2697 520.533 38.6177 521.9 37.4214C523.268 36.1681 524.948 34.9718 526.942 33.8325C528.993 32.6362 531.157 31.6678 533.436 30.9272C535.715 30.1867 538.193 29.617 540.87 29.2183C543.604 28.7625 546.453 28.5347 549.415 28.5347C553.517 28.5347 557.504 28.9904 561.378 29.9019C565.309 30.7563 568.584 32.0096 571.205 33.6616C573.825 35.2567 576.018 37.279 577.784 39.7285C579.55 42.1211 580.718 44.7131 581.288 47.5044C581.857 50.2957 582.142 53.1725 582.142 56.1348C582.142 58.2995 581.914 62.9707 581.458 70.1484L580.006 101.081C579.721 107.176 579.579 112.816 579.579 118C573.825 117.886 568.442 117.829 563.429 117.829C556.65 117.829 550.469 117.886 544.886 118C545.399 112.816 545.94 105.126 546.51 94.9287C547.079 84.6748 547.364 77.4686 547.364 73.3101C547.364 66.8729 546.111 62.401 543.604 59.8945C541.155 57.3311 538.05 56.0493 534.291 56.0493C530.986 56.0493 527.853 57.1317 524.891 59.2964C521.986 61.4611 519.736 64.6227 518.141 68.7812C516.546 72.8828 515.406 79.6618 514.723 89.1182C514.096 98.5745 513.669 108.202 513.441 118C507.744 117.886 502.19 117.829 496.778 117.829C491.082 117.829 484.901 117.886 478.236 118ZM588.858 118C589.656 110.708 590.226 104.784 590.567 100.227C591.023 94.0173 591.479 86.2414 591.935 76.8989L592.875 56.6475C593.273 47.4759 593.558 38.7031 593.729 30.3291C593.957 20.3031 594.071 10.6473 594.071 1.36182C602.046 1.47575 608.028 1.53271 612.015 1.53271C616.629 1.53271 622.098 1.47575 628.421 1.36182C627.111 16.2869 625.915 34.8294 624.833 56.9893C623.75 79.1491 623.209 99.486 623.209 118C616.601 117.886 611.018 117.829 606.461 117.829C601.22 117.829 595.353 117.886 588.858 118ZM626.542 68.9521L641.239 47.7607L652.262 30.7563C660.123 30.8703 666.076 30.9272 670.121 30.9272C675.703 30.9272 682.311 30.8703 689.945 30.7563L672.94 52.8877C668.953 57.9577 664.88 63.4264 660.721 69.2939C664.709 76.6426 674.308 92.8779 689.518 118C682.853 117.886 676.843 117.829 671.488 117.829C666.019 117.829 659.753 117.886 652.689 118L647.391 107.319C645.511 103.616 643.888 100.511 642.521 98.0049C642.008 96.9795 638.106 90.0011 630.814 77.0698L626.542 68.9521Z" fill="#D9D9BF"/>
</svg>
