<svg width="174" height="31" viewBox="0 0 174 31" fill="none" xmlns="http://www.w3.org/2000/svg">
<path d="M0.324608 30C0.639712 26.7344 0.854556 24.1204 0.969139 22.1582C1.14101 19.2363 1.31289 15.4551 1.48476 10.8145C1.61367 7.26237 1.67812 4.72005 1.67812 3.1875V0.673828C3.3539 0.716797 4.80052 0.738281 6.01797 0.738281C7.19245 0.738281 8.73216 0.709635 10.6371 0.652344C12.5421 0.580729 14.3324 0.544922 16.0082 0.544922C17.9275 0.544922 19.6104 0.659505 21.057 0.888672C22.5036 1.11784 23.85 1.59049 25.0961 2.30664C26.3565 3.02279 27.4092 3.96094 28.2543 5.12109C29.0993 6.28125 29.7439 7.64193 30.1879 9.20312C30.6319 10.75 30.8539 12.347 30.8539 13.9941C30.8539 15.6126 30.682 17.1738 30.3383 18.6777C29.9945 20.1673 29.5147 21.5137 28.8988 22.7168C28.2829 23.9199 27.5596 24.9583 26.7289 25.832C25.9125 26.6914 24.9743 27.429 23.9145 28.0449C23.1267 28.5033 22.3318 28.8613 21.5297 29.1191C20.7276 29.377 19.6319 29.5846 18.2426 29.7422C16.6957 29.9141 14.9411 30 12.9789 30L4.29922 29.9355C3.48281 29.9355 2.15794 29.957 0.324608 30ZM9.60586 23.5332C10.3936 23.6048 11.2172 23.6406 12.0766 23.6406C13.5375 23.6406 14.8409 23.5117 15.9867 23.2539C17.1326 22.9961 18.1352 22.4447 18.9945 21.5996C19.8682 20.7546 20.5128 19.6732 20.9281 18.3555C21.3435 17.0234 21.5512 15.6628 21.5512 14.2734C21.5512 12.569 21.2432 11.1367 20.6273 9.97656C20.0115 8.80208 19.1879 7.98568 18.1566 7.52734C17.1397 7.06901 15.7504 6.83984 13.9887 6.83984C12.9574 6.83984 11.74 6.88281 10.3363 6.96875L9.60586 23.5332ZM53.1246 23.5117C52.9384 24.3711 52.5803 26.4479 52.0504 29.7422C50.3889 30.0716 48.9924 30.2865 47.8609 30.3867C46.7294 30.5013 45.5836 30.5586 44.4234 30.5586C42.719 30.5586 41.1506 30.4368 39.7184 30.1934C38.2861 29.9642 37.0471 29.5488 36.0016 28.9473C34.9703 28.3457 34.1038 27.6009 33.402 26.7129C32.7001 25.8105 32.163 24.7435 31.7906 23.5117C31.4325 22.2799 31.2535 21.0124 31.2535 19.709C31.2535 17.8757 31.6187 16.0853 32.3492 14.3379C33.0797 12.5762 34.0178 11.2012 35.1637 10.2129C36.3238 9.22461 37.6559 8.52279 39.1598 8.10742C40.6637 7.69206 42.2034 7.48438 43.7789 7.48438C45.4117 7.48438 46.9658 7.67773 48.441 8.06445C49.9306 8.43685 51.191 9.0957 52.2223 10.041C53.2535 10.9863 53.984 12.0534 54.4137 13.2422C54.8577 14.431 55.0797 15.7129 55.0797 17.0879C55.0797 17.9043 54.9866 18.8138 54.8004 19.8164L39.7398 19.8379C39.7255 20.0671 39.7184 20.2747 39.7184 20.4609C39.7184 22.0078 40.2698 23.1465 41.3727 23.877C42.4755 24.6074 43.8219 24.9727 45.4117 24.9727C46.357 24.9727 47.4312 24.8652 48.6344 24.6504C49.8518 24.4212 51.3486 24.0417 53.1246 23.5117ZM39.9117 16.5508H47.0016C47.0159 16.3073 47.023 16.0996 47.023 15.9277C47.023 15.1829 46.887 14.5456 46.6148 14.0156C46.357 13.4857 45.9775 13.099 45.4762 12.8555C44.9892 12.612 44.4378 12.4902 43.8219 12.4902C43.3922 12.4902 42.9768 12.5618 42.5758 12.7051C42.1747 12.834 41.8095 13.0345 41.4801 13.3066C41.165 13.5645 40.9 13.8652 40.6852 14.209C40.4703 14.5527 40.3128 14.8893 40.2125 15.2188C40.1122 15.5339 40.012 15.9779 39.9117 16.5508ZM61.6023 30L59.325 22.9531L54.1902 8.06445C55.823 8.0931 57.3413 8.10742 58.7449 8.10742C60.2059 8.10742 61.5809 8.0931 62.8699 8.06445C63.1134 9.05273 63.5932 10.7858 64.3094 13.2637C65.0255 15.7272 65.8133 18.6634 66.6727 22.0723L67.2312 20.2891C67.3172 20.0742 67.6538 19.1576 68.241 17.5391L71.657 8.06445C73.2039 8.0931 74.6648 8.10742 76.0398 8.10742C77.4578 8.10742 78.9331 8.0931 80.4656 8.06445L77.5008 14.4453L71.9793 27.1211L70.7977 30C69.1075 29.9714 67.618 29.957 66.3289 29.957C64.9253 29.957 63.3497 29.9714 61.6023 30ZM79.4258 30L80.0918 20.4609L80.3066 14.9824C80.321 13.9941 80.3281 12.9844 80.3281 11.9531C80.3281 10.9076 80.3138 9.61133 80.2852 8.06445C82.0182 8.0931 83.3932 8.10742 84.4102 8.10742C85.599 8.10742 86.9668 8.0931 88.5137 8.06445L88.4277 10.4922C88.9863 9.86198 89.4447 9.39648 89.8027 9.0957C90.1608 8.7806 90.569 8.5013 91.0273 8.25781C91.4857 8 91.9655 7.8138 92.4668 7.69922C92.9681 7.57031 93.4909 7.50586 94.0352 7.50586C94.5508 7.50586 95.1237 7.57747 95.7539 7.7207C95.7682 9.2819 95.804 10.571 95.8613 11.5879L96.0117 14.8965C95.224 14.6673 94.4863 14.5527 93.7988 14.5527C92.9395 14.5527 92.1947 14.6816 91.5645 14.9395C90.9486 15.1829 90.3971 15.5625 89.9102 16.0781C89.4375 16.5794 89.0579 17.2096 88.7715 17.9688C88.485 18.7279 88.2845 19.931 88.1699 21.5781C88.0553 23.2253 87.998 25.1087 87.998 27.2285C87.998 27.9733 88.0267 28.8971 88.084 30C86.6947 29.9714 85.2982 29.957 83.8945 29.957C82.5052 29.957 81.0156 29.9714 79.4258 30ZM98.173 14.3164C98.4452 12.8984 98.6171 11.9245 98.6887 11.3945C98.7603 10.8503 98.8749 10.0052 99.0324 8.85938C103.157 7.95703 106.702 7.50586 109.667 7.50586C111.357 7.50586 112.904 7.69922 114.308 8.08594C115.711 8.45833 116.807 9.06706 117.595 9.91211C118.383 10.7572 118.777 11.9674 118.777 13.543C118.777 14.3451 118.669 16.1497 118.454 18.957C118.239 21.7643 118.075 25.4453 117.96 30C116.557 29.9714 115.16 29.957 113.771 29.957C112.424 29.957 110.992 29.9714 109.474 30C109.674 28.4245 109.896 25.1732 110.14 20.2461C109.596 20.5039 109.166 20.6901 108.851 20.8047C108.55 20.9193 108.013 21.0911 107.239 21.3203C106.466 21.5495 105.857 21.7428 105.413 21.9004C104.984 22.0579 104.604 22.2585 104.275 22.502C103.96 22.7454 103.73 22.9961 103.587 23.2539C103.458 23.5117 103.394 23.7982 103.394 24.1133C103.394 24.6003 103.587 25.0156 103.974 25.3594C104.361 25.7031 104.976 25.875 105.821 25.875C106.122 25.875 106.445 25.8535 106.788 25.8105C107.132 25.7533 107.605 25.6243 108.206 25.4238C107.791 26.5267 107.297 28.138 106.724 30.2578C105.492 30.4583 104.325 30.5586 103.222 30.5586C101.446 30.5586 99.9634 30.3151 98.7746 29.8281C97.6001 29.3268 96.6906 28.5247 96.0461 27.4219C95.4159 26.319 95.1008 25.2161 95.1008 24.1133C95.1008 23.4401 95.2154 22.7812 95.4445 22.1367C95.688 21.4922 96.0604 20.862 96.5617 20.2461C97.063 19.6302 97.6503 19.1074 98.3234 18.6777C98.9966 18.2337 99.9133 17.8184 101.073 17.4316C102.248 17.0449 103.73 16.6797 105.521 16.3359C106.265 16.1927 106.946 16.0423 107.562 15.8848C108.192 15.7129 108.636 15.5697 108.894 15.4551C109.166 15.3262 109.381 15.1829 109.538 15.0254C109.71 14.8535 109.832 14.6816 109.904 14.5098C109.975 14.3236 110.011 14.1302 110.011 13.9297C110.011 13.3854 109.782 12.9701 109.323 12.6836C108.865 12.3828 108.192 12.2324 107.304 12.2324C104.84 12.2324 101.797 12.9271 98.173 14.3164ZM120.379 30C120.795 26.7487 121.11 23.1608 121.325 19.2363C121.554 15.2975 121.69 11.5736 121.733 8.06445C123.452 8.0931 124.934 8.10742 126.18 8.10742C127.627 8.10742 129.016 8.0931 130.348 8.06445L130.133 10.9863C130.606 10.4564 131.014 10.041 131.358 9.74023C131.702 9.42513 132.124 9.12435 132.625 8.83789C133.141 8.53711 133.685 8.29362 134.258 8.10742C134.831 7.92122 135.454 7.77799 136.127 7.67773C136.815 7.56315 137.531 7.50586 138.276 7.50586C139.307 7.50586 140.31 7.62044 141.284 7.84961C142.272 8.06445 143.095 8.37956 143.754 8.79492C144.413 9.19596 144.965 9.70443 145.409 10.3203C145.853 10.9219 146.146 11.5736 146.289 12.2754C146.433 12.9772 146.504 13.7005 146.504 14.4453C146.504 14.9896 146.447 16.1641 146.332 17.9688L145.967 25.7461C145.896 27.2786 145.86 28.6966 145.86 30C144.413 29.9714 143.06 29.957 141.799 29.957C140.095 29.957 138.541 29.9714 137.137 30C137.266 28.6966 137.402 26.763 137.545 24.1992C137.689 21.6211 137.76 19.8092 137.76 18.7637C137.76 17.1452 137.445 16.0208 136.815 15.3906C136.199 14.7461 135.418 14.4238 134.473 14.4238C133.642 14.4238 132.855 14.696 132.11 15.2402C131.379 15.7845 130.814 16.5794 130.413 17.625C130.011 18.6562 129.725 20.3607 129.553 22.7383C129.396 25.1159 129.288 27.5365 129.231 30C127.799 29.9714 126.402 29.957 125.041 29.957C123.609 29.957 122.055 29.9714 120.379 30ZM148.193 30C148.393 28.1667 148.537 26.6771 148.623 25.5312C148.737 23.9701 148.852 22.015 148.966 19.666L149.203 14.5742C149.303 12.2682 149.375 10.0625 149.418 7.95703C149.475 5.4362 149.504 3.00846 149.504 0.673828C151.509 0.702474 153.013 0.716797 154.015 0.716797C155.175 0.716797 156.55 0.702474 158.14 0.673828C157.811 4.42643 157.51 9.08854 157.238 14.6602C156.966 20.2318 156.83 25.3451 156.83 30C155.168 29.9714 153.765 29.957 152.619 29.957C151.301 29.957 149.826 29.9714 148.193 30ZM157.668 17.668L161.363 12.3398L164.134 8.06445C166.111 8.0931 167.608 8.10742 168.625 8.10742C170.028 8.10742 171.69 8.0931 173.609 8.06445L169.334 13.6289C168.331 14.9036 167.307 16.2786 166.261 17.7539C167.264 19.6016 169.677 23.6836 173.502 30C171.826 29.9714 170.315 29.957 168.968 29.957C167.593 29.957 166.018 29.9714 164.242 30L162.91 27.3145C162.437 26.3835 162.029 25.6029 161.685 24.9727C161.556 24.7148 160.575 22.9603 158.742 19.709L157.668 17.668Z" fill="#D9D9BF"/>
</svg>
