<svg width="897" height="175" viewBox="0 0 897 175" fill="none" xmlns="http://www.w3.org/2000/svg">
<path d="M60.9482 149C87.5229 148.658 111.62 133.79 125.462 111.231C130.418 104.054 135.802 97.3032 141.612 90.8091C142.979 89.271 143.834 88.2456 144.261 87.8184L60.9482 149ZM74.7056 48.5972H84.4468C86.4121 48.5972 88.2065 48.7681 89.9155 49.1099C90.5137 49.4517 90.5991 50.1353 90.0864 51.1606C88.5483 53.7241 86.4976 55.8604 84.4468 57.9111C83.3359 59.022 82.4814 59.8765 81.8833 60.4746L120.165 32.2764C111.363 26.5513 100.511 24.1587 90.1719 24.1587H48.3018L35.9971 73.5483C32.3228 89.1001 12.584 110.035 0.962891 119.947L69.5786 69.5322L74.7056 48.5972ZM134.52 89.0146L135.802 83.7168C138.622 72.3521 138.536 62.0981 135.545 52.9551C134.349 49.1099 132.726 45.6064 130.589 42.5303C130.333 41.7612 130.333 40.8213 130.589 39.7104C130.846 38.6851 131.358 37.5742 131.957 36.3779C134.947 30.3965 141.698 23.7314 146.483 19.1172L99.4858 53.5532C100.597 54.4932 101.537 55.7749 102.306 57.2275C105.467 63.1235 105.638 71.9248 102.647 83.6313L101.366 88.9292C96.9224 107.044 86.8394 124.476 65.6479 124.476H55.9922L67.7842 76.8809L27.9648 106.104L17.3691 149H44.2856C45.3965 149.085 45.7383 149.684 45.311 150.794C44.7983 151.905 43.9438 153.102 42.7476 154.554C40.355 157.118 37.7915 159.681 35.0571 161.903L134.52 89.0146ZM199.769 49.0244H216.517L249.928 24.5005H173.28L156.275 93.3726L196.009 64.1489L199.769 49.0244ZM167.726 174.037C176.271 168.226 203.529 150.025 211.646 149.427H232.24L236.085 134.046C237.452 128.749 241.297 121.144 244.972 117.469L167.726 174.037ZM123.805 123.28C128.419 120.887 133.033 118.58 137.818 116.615C140.296 115.589 142.945 114.564 145.509 113.966C146.62 113.709 147.56 113.539 148.414 113.539C149.269 113.539 149.867 113.709 150.294 114.051C150.721 114.479 150.807 115.077 150.636 115.931C150.55 116.017 150.465 116.529 150.208 117.469C149.952 118.409 149.696 119.605 149.354 121.058C148.414 124.989 147.474 128.919 146.449 132.85C145.252 137.721 143.885 143.189 142.347 149.427H183.192C184.046 149.513 184.474 149.94 184.388 150.624C184.046 153.272 179.176 158.143 177.381 159.938C176.271 161.048 175.16 161.988 174.22 162.928C173.194 163.868 172.425 164.466 171.998 164.894L226.6 124.903H180.97L187.892 97.0469H236.427L242.237 73.3774H199.94C199.513 73.292 199.342 73.0356 199.427 72.7793C199.427 72.5229 199.598 72.1812 199.854 71.8394C200.538 71.1558 200.965 70.7285 201.82 70.1304C202.589 69.5322 203.956 68.3359 206.092 66.7124C212.501 61.6709 218.995 56.7148 225.575 51.9297C228.053 49.9644 230.018 49.1099 233.18 49.1099L233.778 49.0244H257.276L259.071 41.7612C263.172 29.4565 272.914 16.2974 281.8 7.1543L123.805 123.28ZM392.679 22.9624H356.107L309.366 110.975L306.632 34.6689L249.295 76.8809C254.593 73.7192 265.787 67.3105 271.512 67.3105C273.478 67.3105 274.588 68.0796 274.674 69.7031C274.674 69.7886 274.759 70.8994 275.016 73.1211C275.272 75.3428 275.528 78.1626 275.87 81.4951C276.212 84.9131 276.554 88.6729 276.981 92.689C277.408 96.7051 277.921 102.259 278.69 109.181C279.801 120.716 281.168 133.875 282.621 148.487H293.558L336.539 117.042L336.625 116.871C337.564 116.188 338.932 115.162 340.726 113.88C344.999 110.804 349.271 107.728 353.458 104.566C355.765 102.857 357.901 101.319 359.867 99.8667C361.747 98.4995 363.285 97.3887 364.566 96.4487C365.848 95.5088 366.446 95.0815 366.532 94.9961C362.43 97.3887 354.996 101.405 350.125 101.405C347.818 101.405 346.964 100.379 347.647 98.4141L392.679 22.9624ZM269.889 172.071C269.376 172.499 268.778 172.84 268.265 173.268C281.681 163.526 303.299 150.025 317.228 148.487H317.74L330.13 127.809L269.889 172.071ZM345.084 0.318359C344.4 0.745605 343.119 1.4292 341.239 2.45459C336.283 5.35986 331.156 8.09424 326.029 10.8286C322.953 12.5376 319.876 14.2466 316.8 15.9556C309.964 19.8008 300.052 22.5352 292.362 22.9624H270.145L272.367 45.6919V46.4609C272.538 47.6572 271.939 49.1953 270.658 51.0752C266.983 56.373 261.942 60.8164 257.071 65.0034L345.084 0.318359ZM485.956 33.5581C477.923 26.2095 466.986 23.9878 456.39 23.646L388.287 73.6338V73.7192L356.244 97.2178C357.867 96.2778 359.662 95.3379 361.627 94.3979C363.336 93.6289 365.301 92.689 367.608 91.5781C369.83 90.4673 372.223 89.3564 374.786 88.2456C376.495 87.4766 378.802 86.7075 380.682 86.7075C383.075 86.7075 383.929 87.562 384.271 89.7837L369.659 149H379.657C388.543 142.42 397.43 135.841 406.402 129.432C408.709 127.723 410.846 126.185 412.64 124.818C414.435 123.451 415.973 122.34 417.083 121.485C418.023 120.802 418.622 120.375 418.792 120.289C416.913 121.144 415.375 121.742 414.178 122.083C412.982 122.511 412.042 122.682 411.358 122.682C410.504 122.682 409.991 122.511 409.735 122.083C409.479 121.742 409.308 121.4 409.222 121.058L413.153 105.335H428.705L440.582 149H476.3L470.575 129.432V129.518L461.261 97.4741C477.667 90.5527 487.921 79.4443 492.193 62.0127C495.27 49.7935 493.219 40.3086 485.956 33.5581ZM459.039 64.3198C456.305 75.0864 448.871 80.6406 437.848 80.6406H419.305L427.337 48.1699H446.307C451.861 48.1699 455.707 49.6226 457.757 52.4424C459.894 55.2622 460.321 59.1929 459.039 64.3198ZM476.471 2.88184C475.104 3.65088 473.48 4.50537 471.686 5.53076C469.806 6.55615 467.755 7.66699 465.619 8.86328C463.482 10.0596 461.175 11.3413 458.868 12.623C456.476 13.9048 454.083 15.272 451.776 16.5537C444.256 20.4844 435.882 22.5352 427.423 23.5605H400.677L390.082 66.2852L476.471 2.88184ZM354.107 174.037C367.01 164.552 387.176 152.162 402.557 149.085L405.548 136.097L354.107 174.037C353.68 174.293 353.338 174.635 352.911 174.891L354.107 174.037ZM622.298 2.19824C621.615 2.62549 620.333 3.30908 618.539 4.33447C616.659 5.35986 614.437 6.55615 611.959 8.00879C609.396 9.46143 606.576 10.9995 603.585 12.623C600.509 14.332 597.433 15.9556 594.442 17.5791C585.812 22.4497 574.703 24.7568 564.876 24.7568H553.17L553.084 24.9277H552.999L525.228 69.105C521.896 73.3774 518.392 77.3936 514.376 80.9824C513.094 82.2642 511.727 83.375 510.445 84.4004L509.591 84.9985C509.847 84.8276 510.189 84.5713 510.445 84.4004L622.298 2.19824ZM593.075 98.7559L584.444 36.0361L513.18 88.3311L471.31 119.264C472.335 118.751 473.958 117.896 476.18 116.7C478.487 115.589 480.88 114.393 483.358 113.197C485.836 112.086 488.229 111.061 490.536 110.121C492.757 109.181 494.381 108.753 495.321 108.753C496.944 108.753 497.628 109.608 497.372 111.231C497.115 112.94 496.004 115.333 494.21 118.495L475.326 148.573H509.847L522.835 125.758H563.766C560.775 132.679 557.784 139.857 551.717 144.728L610.677 101.49C607.43 103.456 602.816 106.019 598.885 106.019C597.86 106.019 597.005 105.848 596.322 105.421C594.1 104.31 593.246 101.49 593.075 99.1831V98.7559ZM558.81 62.6108L561.715 101.49H536.678L558.81 62.6108ZM595.724 118.409L564.706 141.139V141.224L521.725 172.84C533.517 164.21 555.733 150.111 569.662 148.573H599.825L597.347 130.628C597.347 130.201 597.347 129.774 597.262 129.518C597.005 127.894 597.176 126.185 597.689 124.391C598.885 119.52 602.56 114.649 605.892 111.061L595.724 118.495V118.409ZM700.792 99.0977L692.076 73.7192L570.14 163.27C570.824 162.843 572.618 161.988 575.438 160.536C578.343 159.083 582.018 157.63 586.375 156.092C596.715 152.247 607.738 149.854 618.761 149.513H644.396L654.649 108.155C655.248 106.532 656.188 104.908 657.64 103.199C659.349 101.148 665.16 95.8506 667.979 95.8506C669.518 95.8506 670.628 96.9614 671.397 99.1831C671.397 99.2686 673.875 106.275 674.046 106.788C674.815 108.924 675.584 111.317 676.524 113.88C677.464 116.529 678.661 120.033 680.199 124.476C682.677 131.825 685.582 140.199 688.829 149.513H720.873L743.688 57.2275C748.729 43.043 758.983 30.2256 769.493 19.7153C775.218 13.9048 781.285 8.52148 787.694 3.56543L710.362 60.2183L700.792 99.0977ZM719.334 23.9878L718.651 26.8076C714.635 38.7705 705.064 56.2021 696.349 64.4907L751.463 23.9878H719.334ZM662.938 74.4883L666.954 86.1094L690.367 68.8486L674.986 23.9878H642.772L618.59 121.571L658.58 92.2617L662.938 74.4883ZM855.763 0.403809C855.079 0.745605 853.797 1.4292 851.917 2.45459C850.038 3.56543 847.816 4.76172 845.252 6.21436C842.604 7.66699 839.784 9.20508 836.793 10.8286C833.717 12.5376 830.641 14.2466 827.564 15.9556C818.849 20.5698 809.449 22.4497 799.623 23.2188H785.694L778.858 50.8188C776.466 56.9712 766.383 65.687 761.427 69.7031L855.763 0.403809ZM754.676 148.573H787.318L795.436 115.589L810.389 103.114L817.738 124.305C817.994 125.672 817.909 127.21 817.396 128.834C814.833 135.755 809.364 142.079 804.237 147.206L802.186 149.256C814.405 140.284 825.343 132.252 834.999 125.16C839.1 122.169 843.116 119.178 847.132 116.273C851.063 113.368 854.566 110.804 857.643 108.497C860.719 106.275 863.197 104.481 865.162 103.028C866.615 101.917 867.555 101.319 867.896 101.063C864.051 103.199 859.095 105.763 854.566 105.763C849.952 105.763 847.56 103.199 845.851 99.1831C845.851 99.0977 845.765 98.7559 845.509 98.1577C845.252 97.5596 844.996 96.876 844.654 95.936C843.714 93.6289 842.774 91.2363 841.92 88.9292L838.075 78.9316L896.095 23.2188H855.421L805.348 75.77L815.089 36.2925L743.824 88.7583C745.448 87.8184 747.242 86.8784 749.208 85.9385C750.917 85.1694 752.882 84.2295 755.104 83.1187C757.325 82.0078 759.718 80.897 762.367 79.7861C764.161 79.0171 765.699 78.5898 766.981 78.5898C767.921 78.5898 768.604 78.8462 769.117 79.2734C769.544 79.7007 769.886 80.3843 770.057 81.1533C770.228 81.9224 770.313 82.8623 770.228 83.8877C770.143 84.9131 769.972 86.0239 769.801 87.1348L754.676 148.573ZM779.627 171.9C791.676 163.27 812.525 150.196 826.795 148.573H864.649L853.028 118.067L779.627 171.9C779.029 172.328 778.431 172.84 777.833 173.268L779.627 171.9Z" fill="#D9D9BF"/>
</svg>
