<svg width="24" height="24" viewBox="0 0 24 24" fill="none" xmlns="http://www.w3.org/2000/svg">
<path d="M12 17.3344V18.6656C12.736 18.6656 13.3313 19.2656 13.3313 19.9969C13.3313 20.7328 12.7313 21.3281 12 21.3281C11.2641 21.3281 10.6688 20.7281 10.6688 19.9969C10.6688 19.2609 11.2688 18.6656 12 18.6656V17.3344V16.0031C9.79221 16.0031 8.00159 17.7937 8.00159 20.0016C8.00159 22.2094 9.79221 24 12 24C14.2078 24 15.9985 22.2094 15.9985 20.0016C15.9985 17.7937 14.2078 16.0031 12 16.0031V17.3344Z" fill="#FBFBFB"/>
<path d="M5.33442 1.33125V2.6625C6.07036 2.6625 6.66567 3.2625 6.66567 3.99375C6.66567 4.72969 6.06567 5.325 5.33442 5.325C4.59849 5.325 4.00317 4.725 4.00317 3.99375C4.00317 3.25781 4.60317 2.6625 5.33442 2.6625V1.33125V0C3.12192 0 1.33599 1.79063 1.3313 3.99844C1.3313 6.20625 3.12192 7.99688 5.32974 7.99688C7.53755 7.99688 9.32817 6.20625 9.32817 3.99844C9.32817 1.79063 7.53755 0 5.32974 0V1.33125H5.33442Z" fill="#FBFBFB"/>
<path d="M18.6657 1.33125V2.6625C19.4016 2.6625 19.9969 3.2625 19.9969 3.99375C19.9969 4.72969 19.3969 5.325 18.6657 5.325C17.9297 5.325 17.3344 4.725 17.3344 3.99375C17.3344 3.25781 17.9344 2.6625 18.6657 2.6625V1.33125V0C16.4579 0 14.6672 1.79063 14.6672 3.99844C14.6672 6.20625 16.4579 7.99688 18.6657 7.99688C20.8735 7.99688 22.6641 6.20625 22.6641 3.99844C22.6641 1.79063 20.8735 0 18.6657 0V1.33125Z" fill="#FBFBFB"/>
<path d="M3.99854 6.66563V9.33282C3.99854 11.5406 5.78916 13.3313 7.99697 13.3313H15.9985C18.2063 13.3313 19.997 11.5406 19.997 9.33282V6.66563C19.997 5.92969 19.4017 5.33438 18.6657 5.33438C17.9298 5.33438 17.3345 5.92969 17.3345 6.66563V9.33282C17.3345 10.0688 16.7345 10.6641 16.0032 10.6641H8.00166C7.26572 10.6641 6.67041 10.0641 6.67041 9.33282V6.66563C6.67041 5.92969 6.0751 5.33438 5.33916 5.33438C4.60322 5.33438 3.99854 5.92969 3.99854 6.66563Z" fill="#FBFBFB"/>
<path d="M10.6688 12V17.3344C10.6688 18.0703 11.2641 18.6656 12.0001 18.6656C12.736 18.6656 13.3313 18.0703 13.3313 17.3344V12C13.3313 11.2641 12.736 10.6688 12.0001 10.6688C11.2641 10.6688 10.6688 11.2641 10.6688 12Z" fill="#FBFBFB"/>
</svg>
