<svg width="25" height="24" viewBox="0 0 25 24" fill="none" xmlns="http://www.w3.org/2000/svg">
<g clip-path="url(#clip0_499_9082)">
<path d="M12.5 0C5.874 0 0.5 5.373 0.5 12C0.5 17.302 3.938 21.8 8.707 23.387C9.306 23.498 9.5 23.126 9.5 22.81V20.576C6.162 21.302 5.467 19.16 5.467 19.16C4.921 17.773 4.134 17.404 4.134 17.404C3.045 16.659 4.217 16.675 4.217 16.675C5.422 16.759 6.056 17.912 6.056 17.912C7.126 19.746 8.863 19.216 9.548 18.909C9.655 18.134 9.966 17.604 10.31 17.305C7.645 17 4.843 15.971 4.843 11.374C4.843 10.063 5.312 8.993 6.079 8.153C5.955 7.85 5.544 6.629 6.196 4.977C6.196 4.977 7.204 4.655 9.497 6.207C10.454 5.941 11.48 5.808 12.5 5.803C13.52 5.808 14.547 5.941 15.506 6.207C17.797 4.655 18.803 4.977 18.803 4.977C19.456 6.63 19.045 7.851 18.921 8.153C19.691 8.993 20.156 10.064 20.156 11.374C20.156 15.983 17.349 16.998 14.677 17.295C15.107 17.667 15.5 18.397 15.5 19.517V22.81C15.5 23.129 15.692 23.504 16.301 23.386C21.066 21.797 24.5 17.3 24.5 12C24.5 5.373 19.127 0 12.5 0Z" fill="#FBFBFB"/>
</g>
<defs>
<clipPath id="clip0_499_9082">
<rect width="24" height="24" fill="white" transform="translate(0.5)"/>
</clipPath>
</defs>
</svg>
