<svg width="39" height="39" viewBox="0 0 39 39" fill="none" xmlns="http://www.w3.org/2000/svg">
<path fill-rule="evenodd" clip-rule="evenodd" d="M19.5 33.75C27.3701 33.75 33.75 27.3701 33.75 19.5C33.75 11.6299 27.3701 5.25 19.5 5.25C11.6299 5.25 5.25 11.6299 5.25 19.5C5.25 27.3701 11.6299 33.75 19.5 33.75ZM23.942 29.6572C27.6111 28.0505 30.2424 24.5139 30.5526 20.3313C29.2497 21.0419 27.6067 21.6245 25.7337 22.0302C25.498 24.9904 24.8559 27.6337 23.942 29.6572ZM15.058 9.34271C11.9748 10.693 9.62435 13.4058 8.76829 16.7197C9.13503 17.0677 9.75954 17.4957 10.7098 17.9179C11.4205 18.2338 12.2492 18.518 13.1752 18.7554C13.2593 15.0759 13.9639 11.7652 15.058 9.34271ZM16.4926 22.5254C16.7407 24.8319 17.2599 26.8153 17.9154 28.2902C18.3809 29.3377 18.8534 29.9893 19.2179 30.3362C19.3475 30.4597 19.4413 30.5254 19.5 30.5593C19.5587 30.5254 19.6525 30.4597 19.7822 30.3362C20.1466 29.9893 20.6191 29.3377 21.0846 28.2902C21.7401 26.8153 22.2593 24.8319 22.5074 22.5254C21.5379 22.6179 20.5317 22.6667 19.5 22.6667C18.4683 22.6667 17.4621 22.6179 16.4926 22.5254ZM13.2662 22.0302C13.502 24.9904 14.144 27.6337 15.058 29.6572C11.3889 28.0505 8.75748 24.5138 8.44737 20.3313C9.75032 21.0419 11.3933 21.6245 13.2662 22.0302ZM22.6662 19.3252C21.6676 19.4381 20.6072 19.5 19.5 19.5C18.3929 19.5 17.3324 19.4381 16.3338 19.3252C16.3547 15.8015 17.0029 12.763 17.9154 10.7098C18.3809 9.66232 18.8534 9.01067 19.2179 8.66375C19.3475 8.54036 19.4413 8.4746 19.5 8.44067C19.5587 8.4746 19.6525 8.54036 19.7822 8.66375C20.1466 9.01067 20.6191 9.66232 21.0846 10.7098C21.9971 12.763 22.6453 15.8015 22.6662 19.3252ZM25.8248 18.7554C25.7407 15.0759 25.0361 11.7652 23.942 9.34271C27.0253 10.693 29.3757 13.4059 30.2317 16.7197C29.865 17.0677 29.2405 17.4957 28.2902 17.9179C27.5796 18.2338 26.7509 18.518 25.8248 18.7554Z" fill="#FBFBFB"/>
</svg>
