<svg width="18" height="17" viewBox="0 0 18 17" fill="none" xmlns="http://www.w3.org/2000/svg">
<path d="M6.16675 13.4075C7.02819 13.9049 8.00537 14.1667 9.00008 14.1667C9.99479 14.1667 10.972 13.9049 11.8334 13.4075C12.6949 12.9102 13.4102 12.1948 13.9076 11.3334C14.4049 10.4719 14.6667 9.49475 14.6667 8.50004C14.6667 7.50533 14.4049 6.52815 13.9076 5.66671C13.4102 4.80527 12.6949 4.08992 11.8334 3.59256C10.972 3.09521 9.99479 2.83337 9.00008 2.83337C8.00537 2.83337 7.02819 3.09521 6.16675 3.59256" stroke="#FBFBFB"/>
<path d="M1.91675 8.50004L1.52631 8.18769L1.27644 8.50004L1.52631 8.81239L1.91675 8.50004ZM8.29175 9.00004C8.56789 9.00004 8.79175 8.77618 8.79175 8.50004C8.79175 8.2239 8.56789 8.00004 8.29175 8.00004V9.00004ZM4.35965 4.64603L1.52631 8.18769L2.30718 8.81239L5.14052 5.27072L4.35965 4.64603ZM1.52631 8.81239L4.35965 12.3541L5.14052 11.7294L2.30718 8.18769L1.52631 8.81239ZM1.91675 9.00004H8.29175V8.00004H1.91675V9.00004Z" fill="#FBFBFB"/>
</svg>
