<svg width="574" height="232" viewBox="0 0 574 232" fill="none" xmlns="http://www.w3.org/2000/svg">
<path fill-rule="evenodd" clip-rule="evenodd" d="M363.989 36.9978L336.047 52.3652L369.211 68.0242L367.119 101.917L394.375 85.7092L396.961 52.0263L397 52.003L363.989 36.9978Z" fill="#FBFBFB" fill-opacity="0.08"/>
<path fill-rule="evenodd" clip-rule="evenodd" d="M326.944 48.0722L354.473 32.78L356.911 33.7831L323.324 18.5198L295.347 33.1544L326.944 48.0722Z" fill="#FBFBFB" fill-opacity="0.08"/>
<path fill-rule="evenodd" clip-rule="evenodd" d="M285.324 28.4199L313.685 14.1347L283.316 0.331055L254.885 14.6291L255.527 14.3496L285.324 28.4199Z" fill="#FBFBFB" fill-opacity="0.08"/>
<path fill-rule="evenodd" clip-rule="evenodd" d="M275.919 33.154L246.069 19.0637L217.61 33.376L246.742 47.8459L275.919 33.154Z" fill="#FBFBFB" fill-opacity="0.08"/>
<path fill-rule="evenodd" clip-rule="evenodd" d="M206.683 68.0243L237.183 52.6606L207.991 38.2122L176.45 54.0757L176.405 54.0488L177.87 87.4594L207.575 103.421L206.683 68.0243Z" fill="#FBFBFB" fill-opacity="0.08"/>
<path fill-rule="evenodd" clip-rule="evenodd" d="M207.767 110.937L178.194 94.8333L179.635 127.778L208.601 144.107L207.767 110.937Z" fill="#FBFBFB" fill-opacity="0.08"/>
<path fill-rule="evenodd" clip-rule="evenodd" d="M208.847 153.78L180.062 137.612L181.419 168.562L210.948 185.856L209.628 184.98L208.847 153.78Z" fill="#FBFBFB" fill-opacity="0.08"/>
<path fill-rule="evenodd" clip-rule="evenodd" d="M219.303 190.75L249.21 208.264V176.459L218.738 159.344L219.303 190.75Z" fill="#FBFBFB" fill-opacity="0.08"/>
<path fill-rule="evenodd" clip-rule="evenodd" d="M257.741 181.253L257.632 213.202L288.788 231.45L317.869 212.457L318.869 181.169L290.05 199.404L257.741 181.253Z" fill="#FBFBFB" fill-opacity="0.08"/>
<path fill-rule="evenodd" clip-rule="evenodd" d="M325.435 207.515L354.083 188.809L355.648 157.89L326.896 176.089L325.435 207.515Z" fill="#FBFBFB" fill-opacity="0.08"/>
<path fill-rule="evenodd" clip-rule="evenodd" d="M362.065 183.601L388.158 166.562L390.521 135.824L363.98 152.621L362.065 183.601Z" fill="#FBFBFB" fill-opacity="0.08"/>
<path fill-rule="evenodd" clip-rule="evenodd" d="M364.587 142.848L390.689 126.501L393.779 93.4236L366.628 109.733L364.587 142.848Z" fill="#FBFBFB" fill-opacity="0.08"/>
<path fill-rule="evenodd" clip-rule="evenodd" d="M327.349 166.166L356.138 148.137L357.812 115.031L328.916 132.394L327.349 166.166Z" fill="#FBFBFB" fill-opacity="0.08"/>
<path fill-rule="evenodd" clip-rule="evenodd" d="M297.978 73.3025L330.894 89.6549L329.284 124.405L358.209 107.213L359.947 72.8329L327.064 57.3064L297.978 73.3025Z" fill="#FBFBFB" fill-opacity="0.08"/>
<path fill-rule="evenodd" clip-rule="evenodd" d="M257.269 53.075L289.295 68.9867L318.014 53.0282L286.135 37.9763L257.269 53.075Z" fill="#FBFBFB" fill-opacity="0.08"/>
<path fill-rule="evenodd" clip-rule="evenodd" d="M247.907 57.968L217.205 74.0338L217.832 108.935L249.209 125.789V91.2565L280.278 73.9939L247.907 57.968Z" fill="#FBFBFB" fill-opacity="0.08"/>
<path fill-rule="evenodd" clip-rule="evenodd" d="M218.57 149.726L249.212 167V133.503L217.973 116.493L218.57 149.726Z" fill="#FBFBFB" fill-opacity="0.08"/>
<path fill-rule="evenodd" clip-rule="evenodd" d="M257.9 138.235L257.782 171.835L289.633 189.789L319.184 171.282L320.26 137.595L290.053 155.748L257.9 138.235Z" fill="#FBFBFB" fill-opacity="0.08"/>
<path fill-rule="evenodd" clip-rule="evenodd" d="M258.05 95.2628L257.925 130.472L290.049 147.733L320.512 129.625L321.629 94.4603L288.931 78.2781L258.05 95.2628Z" fill="#FBFBFB" fill-opacity="0.08"/>
<path d="M38.9889 153C55.9869 152.781 71.3998 143.271 80.2541 128.842C83.4241 124.251 86.8674 119.933 90.584 115.779C91.4585 114.796 92.0051 114.14 92.2783 113.866L38.9889 153ZM47.7885 88.7794H54.0193C55.2764 88.7794 56.4241 88.8887 57.5173 89.1074C57.8998 89.326 57.9545 89.7632 57.6266 90.4191C56.6428 92.0588 55.331 93.4252 54.0193 94.7369C53.3088 95.4474 52.7622 95.994 52.3796 96.3766L76.8654 78.3402C71.2359 74.6782 64.2946 73.1479 57.6812 73.1479H30.8999L23.0294 104.739C20.6792 114.686 8.05374 128.077 0.620552 134.417L44.5092 102.17L47.7885 88.7794ZM86.0476 114.632L86.8674 111.243C88.6711 103.974 88.6164 97.415 86.7035 91.5669C85.9383 89.1074 84.8998 86.8665 83.5334 84.8989C83.3695 84.407 83.3695 83.8057 83.5334 83.0952C83.6974 82.4393 84.0253 81.7288 84.4079 80.9636C86.3209 77.1377 90.6387 72.8746 93.6994 69.9232L63.6387 91.9495C64.3492 92.5507 64.9504 93.3705 65.4423 94.2997C67.4646 98.0709 67.5739 103.7 65.661 111.188L64.8411 114.577C61.999 126.164 55.5496 137.314 41.995 137.314H35.8189L43.3614 106.87L17.8918 125.563L11.1145 153H28.331C29.0416 153.055 29.2602 153.437 28.9869 154.148C28.659 154.858 28.1124 155.623 27.3472 156.553C25.8169 158.192 24.1772 159.832 22.4282 161.253L86.0476 114.632ZM127.783 89.0527H138.495L159.866 73.3665H110.839L99.963 117.419L125.378 98.7268L127.783 89.0527ZM107.287 169.014C112.752 165.298 130.188 153.656 135.38 153.273H148.552L151.011 143.435C151.886 140.047 154.345 135.182 156.696 132.832L107.287 169.014ZM79.1938 136.549C82.1452 135.018 85.0966 133.543 88.1573 132.285C89.7423 131.63 91.4367 130.974 93.0763 130.591C93.7869 130.427 94.3881 130.318 94.9346 130.318C95.4812 130.318 95.8638 130.427 96.1371 130.646C96.4103 130.919 96.465 131.302 96.3557 131.848C96.301 131.903 96.2464 132.231 96.0824 132.832C95.9184 133.433 95.7545 134.198 95.5358 135.128C94.9346 137.642 94.3334 140.156 93.6775 142.67C92.9124 145.785 92.0379 149.283 91.0541 153.273H117.18C117.726 153.328 117.999 153.601 117.945 154.038C117.726 155.733 114.611 158.848 113.463 159.996C112.752 160.706 112.042 161.308 111.441 161.909C110.785 162.51 110.293 162.893 110.02 163.166L144.945 137.587H115.758L120.186 119.769H151.23L154.947 104.63H127.892C127.619 104.575 127.509 104.411 127.564 104.247C127.564 104.083 127.673 103.864 127.837 103.646C128.275 103.209 128.548 102.935 129.095 102.553C129.586 102.17 130.461 101.405 131.827 100.366C135.926 97.1418 140.08 93.9717 144.289 90.911C145.874 89.6539 147.131 89.1074 149.153 89.1074L149.536 89.0527H164.566L165.714 84.407C168.337 76.5365 174.568 68.1195 180.252 62.2714L79.1938 136.549ZM251.174 72.3827H227.781L197.884 128.678L196.135 79.8705L159.461 106.87C162.85 104.848 170.01 100.749 173.672 100.749C174.929 100.749 175.639 101.241 175.694 102.279C175.694 102.334 175.749 103.045 175.913 104.466C176.077 105.887 176.241 107.69 176.459 109.822C176.678 112.008 176.896 114.413 177.17 116.982C177.443 119.551 177.771 123.103 178.263 127.53C178.973 134.909 179.848 143.326 180.777 152.672H187.773L215.265 132.559L215.32 132.449C215.921 132.012 216.795 131.356 217.943 130.536C220.676 128.569 223.409 126.601 226.087 124.579C227.562 123.486 228.929 122.502 230.186 121.573C231.388 120.698 232.372 119.988 233.192 119.387C234.012 118.785 234.394 118.512 234.449 118.458C231.826 119.988 227.071 122.557 223.955 122.557C222.479 122.557 221.933 121.901 222.37 120.644L251.174 72.3827ZM172.633 167.757C172.305 168.03 171.923 168.249 171.595 168.522C180.176 162.291 194.004 153.656 202.913 152.672H203.241L211.166 139.445L172.633 167.757ZM220.73 57.8989C220.293 58.1722 219.473 58.6094 218.271 59.2653C215.101 61.1236 211.822 62.8726 208.542 64.6216C206.575 65.7147 204.607 66.8078 202.639 67.9009C198.267 70.3604 191.927 72.1094 187.008 72.3827H172.797L174.218 86.9211V87.413C174.328 88.1782 173.945 89.162 173.125 90.3644C170.775 93.7531 167.55 96.5952 164.435 99.2733L220.73 57.8989ZM310.836 79.16C305.698 74.4596 298.702 73.0385 291.925 72.8199L248.364 104.794V104.848L227.868 119.879C228.907 119.277 230.055 118.676 231.312 118.075C232.405 117.583 233.662 116.982 235.138 116.271C236.559 115.561 238.089 114.85 239.729 114.14C240.822 113.648 242.298 113.156 243.5 113.156C245.03 113.156 245.577 113.702 245.796 115.124L236.449 153H242.844C248.528 148.792 254.213 144.583 259.951 140.484C261.427 139.391 262.794 138.407 263.941 137.532C265.089 136.658 266.073 135.947 266.783 135.401C267.385 134.964 267.767 134.69 267.877 134.636C266.674 135.182 265.69 135.565 264.925 135.783C264.16 136.057 263.559 136.166 263.121 136.166C262.575 136.166 262.247 136.057 262.083 135.783C261.919 135.565 261.81 135.346 261.755 135.128L264.269 125.071H274.217L281.814 153H304.66L300.998 140.484V140.538L295.04 120.043C305.534 115.615 312.093 108.51 314.826 97.3604C316.793 89.5446 315.482 83.4778 310.836 79.16ZM293.619 98.8361C291.87 105.723 287.115 109.275 280.065 109.275H268.204L273.342 88.5061H285.476C289.028 88.5061 291.488 89.4353 292.8 91.2389C294.166 93.0426 294.439 95.5567 293.619 98.8361ZM304.769 59.5386C303.895 60.0305 302.856 60.577 301.708 61.2329C300.506 61.8888 299.194 62.5993 297.828 63.3645C296.462 64.1296 294.986 64.9495 293.51 65.7693C291.98 66.5892 290.449 67.4637 288.974 68.2835C284.164 70.7977 278.808 72.1094 273.397 72.7653H256.29L249.512 100.093L304.769 59.5386ZM226.502 169.014C234.755 162.947 247.654 155.022 257.492 153.055L259.405 144.747L226.502 169.014C226.229 169.178 226.01 169.397 225.737 169.561L226.502 169.014ZM398.045 59.1013C397.608 59.3746 396.788 59.8118 395.64 60.4677C394.438 61.1236 393.017 61.8888 391.431 62.8179C389.792 63.7471 387.988 64.7309 386.075 65.7693C384.108 66.8624 382.14 67.9009 380.227 68.9394C374.707 72.0547 367.602 73.5304 361.316 73.5304H353.828L353.774 73.6398H353.719L335.956 101.897C333.824 104.63 331.583 107.198 329.015 109.494C328.195 110.314 327.32 111.024 326.5 111.68L325.954 112.063C326.118 111.953 326.336 111.79 326.5 111.68L398.045 59.1013ZM379.353 120.862L373.832 80.745L328.249 114.194L301.468 133.98C302.124 133.652 303.162 133.105 304.583 132.34C306.059 131.63 307.589 130.864 309.174 130.099C310.76 129.389 312.29 128.733 313.766 128.132C315.187 127.53 316.225 127.257 316.826 127.257C317.865 127.257 318.302 127.804 318.138 128.842C317.974 129.935 317.264 131.466 316.116 133.488L304.037 152.727H326.118L334.425 138.134H360.606C358.693 142.561 356.78 147.152 352.899 150.267L390.612 122.611C388.535 123.868 385.583 125.508 383.069 125.508C382.413 125.508 381.867 125.399 381.429 125.126C380.008 124.415 379.462 122.611 379.353 121.136V120.862ZM357.436 97.743L359.294 122.611H343.28L357.436 97.743ZM381.047 133.433L361.207 147.972V148.026L333.715 168.249C341.257 162.729 355.468 153.711 364.377 152.727H383.67L382.085 141.249C382.085 140.976 382.085 140.702 382.031 140.538C381.867 139.5 381.976 138.407 382.304 137.259C383.069 134.144 385.419 131.028 387.551 128.733L381.047 133.488V133.433ZM448.252 121.081L442.677 104.848L364.683 162.128C365.12 161.854 366.268 161.308 368.072 160.379C369.93 159.449 372.28 158.52 375.068 157.536C381.681 155.077 388.731 153.547 395.782 153.328H412.179L418.738 126.875C419.12 125.836 419.721 124.798 420.65 123.704C421.744 122.393 425.46 119.004 427.264 119.004C428.248 119.004 428.958 119.715 429.45 121.136C429.45 121.19 431.035 125.672 431.144 126C431.636 127.366 432.128 128.897 432.729 130.536C433.331 132.231 434.096 134.472 435.08 137.314C436.665 142.014 438.523 147.37 440.6 153.328H461.096L475.689 94.2997C478.914 85.2268 485.472 77.0284 492.195 70.3058C495.857 66.5892 499.737 63.1458 503.837 59.9758L454.373 96.2126L448.252 121.081ZM460.112 73.0385L459.675 74.8422C457.106 82.494 450.984 93.6438 445.41 98.9454L480.663 73.0385H460.112ZM424.039 105.34L426.608 112.773L441.584 101.733L431.746 73.0385H411.14L395.673 135.455L421.252 116.709L424.039 105.34ZM547.375 57.9535C546.938 58.1722 546.118 58.6094 544.916 59.2653C543.713 59.9758 542.292 60.741 540.653 61.6701C538.958 62.5993 537.155 63.5831 535.242 64.6216C533.274 65.7147 531.307 66.8078 529.339 67.9009C523.764 70.8523 517.752 72.0547 511.467 72.5466H502.558L498.185 90.2005C496.655 94.1357 490.205 99.7106 487.035 102.279L547.375 57.9535ZM482.718 152.727H503.596L508.788 131.63L518.353 123.65L523.054 137.204C523.218 138.079 523.163 139.063 522.835 140.101C521.195 144.528 517.697 148.573 514.418 151.852L513.106 153.164C520.922 147.425 527.918 142.287 534.094 137.751C536.718 135.838 539.286 133.925 541.855 132.067C544.369 130.209 546.61 128.569 548.578 127.093C550.545 125.672 552.13 124.524 553.388 123.595C554.317 122.885 554.918 122.502 555.137 122.338C552.677 123.704 549.507 125.344 546.61 125.344C543.659 125.344 542.128 123.704 541.035 121.136C541.035 121.081 540.981 120.862 540.817 120.48C540.653 120.097 540.489 119.66 540.27 119.059C539.669 117.583 539.068 116.053 538.521 114.577L536.062 108.182L573.173 72.5466H547.157L515.128 106.16L521.359 80.909L475.776 114.468C476.815 113.866 477.963 113.265 479.22 112.664C480.313 112.172 481.57 111.571 482.991 110.86C484.412 110.15 485.942 109.439 487.637 108.729C488.784 108.237 489.768 107.964 490.588 107.964C491.189 107.964 491.626 108.128 491.954 108.401C492.228 108.674 492.446 109.111 492.556 109.603C492.665 110.095 492.72 110.696 492.665 111.352C492.61 112.008 492.501 112.719 492.392 113.429L482.718 152.727ZM498.677 167.648C506.384 162.128 519.72 153.765 528.847 152.727H553.06L545.626 133.215L498.677 167.648C498.295 167.921 497.912 168.249 497.529 168.522L498.677 167.648Z" fill="#D9D9BF"/>
</svg>
