<svg width="24" height="25" viewBox="0 0 24 25" fill="none" xmlns="http://www.w3.org/2000/svg">
<path d="M0 18.5V17.175C0 16.525 0.35 16 1.05 15.6C1.75 15.2 2.65 15 3.75 15C3.96667 15 4.16667 15.0042 4.35 15.0125C4.53333 15.0208 4.71667 15.0417 4.9 15.075C4.76667 15.3583 4.66667 15.6458 4.6 15.9375C4.53333 16.2292 4.5 16.5417 4.5 16.875V18.5H0ZM6 18.5V16.875C6 15.7917 6.55417 14.9167 7.6625 14.25C8.77083 13.5833 10.2167 13.25 12 13.25C13.8 13.25 15.25 13.5833 16.35 14.25C17.45 14.9167 18 15.7917 18 16.875V18.5H6ZM19.5 18.5V16.875C19.5 16.5417 19.4708 16.2292 19.4125 15.9375C19.3542 15.6458 19.2583 15.3583 19.125 15.075C19.3083 15.0417 19.4917 15.0208 19.675 15.0125C19.8583 15.0042 20.05 15 20.25 15C21.3833 15 22.2917 15.2 22.975 15.6C23.6583 16 24 16.525 24 17.175V18.5H19.5ZM12 14.75C10.6667 14.75 9.58333 14.95 8.75 15.35C7.91667 15.75 7.5 16.2583 7.5 16.875V17H16.5V16.85C16.5 16.25 16.0875 15.75 15.2625 15.35C14.4375 14.95 13.35 14.75 12 14.75ZM3.75 14.25C3.26667 14.25 2.85417 14.0792 2.5125 13.7375C2.17083 13.3958 2 12.9833 2 12.5C2 12.0167 2.17083 11.6042 2.5125 11.2625C2.85417 10.9208 3.26667 10.75 3.75 10.75C4.23333 10.75 4.64583 10.9208 4.9875 11.2625C5.32917 11.6042 5.5 12.0167 5.5 12.5C5.5 12.9833 5.32917 13.3958 4.9875 13.7375C4.64583 14.0792 4.23333 14.25 3.75 14.25ZM20.25 14.25C19.7667 14.25 19.3542 14.0792 19.0125 13.7375C18.6708 13.3958 18.5 12.9833 18.5 12.5C18.5 12.0167 18.6708 11.6042 19.0125 11.2625C19.3542 10.9208 19.7667 10.75 20.25 10.75C20.7333 10.75 21.1458 10.9208 21.4875 11.2625C21.8292 11.6042 22 12.0167 22 12.5C22 12.9833 21.8292 13.3958 21.4875 13.7375C21.1458 14.0792 20.7333 14.25 20.25 14.25ZM12 12.5C11.1667 12.5 10.4583 12.2083 9.875 11.625C9.29167 11.0417 9 10.3333 9 9.5C9 8.65 9.29167 7.9375 9.875 7.3625C10.4583 6.7875 11.1667 6.5 12 6.5C12.85 6.5 13.5625 6.7875 14.1375 7.3625C14.7125 7.9375 15 8.65 15 9.5C15 10.3333 14.7125 11.0417 14.1375 11.625C13.5625 12.2083 12.85 12.5 12 12.5ZM12 8C11.5833 8 11.2292 8.14167 10.9375 8.425C10.6458 8.70833 10.5 9.06667 10.5 9.5C10.5 9.91667 10.6458 10.2708 10.9375 10.5625C11.2292 10.8542 11.5833 11 12 11C12.4333 11 12.7917 10.8542 13.075 10.5625C13.3583 10.2708 13.5 9.91667 13.5 9.5C13.5 9.06667 13.3583 8.70833 13.075 8.425C12.7917 8.14167 12.4333 8 12 8Z" fill="#FBFBFB"/>
</svg>
