<svg width="28" height="26" viewBox="0 0 28 26" fill="none" xmlns="http://www.w3.org/2000/svg">
<path fill-rule="evenodd" clip-rule="evenodd" d="M21.9157 5.23755L19.0539 6.86332L22.4505 8.51995L22.2362 12.1056L25.0278 10.3909L25.2926 6.82747L25.2967 6.82501L21.9157 5.23755Z" fill="#3AC63A"/>
<path fill-rule="evenodd" clip-rule="evenodd" d="M18.1215 6.40917L20.941 4.79135L21.1908 4.89747L17.7508 3.28271L14.8853 4.83096L18.1215 6.40917Z" fill="#3AC63A"/>
<path fill-rule="evenodd" clip-rule="evenodd" d="M13.8588 4.33002L16.7636 2.81874L13.6532 1.3584L10.7413 2.87104L10.807 2.84147L13.8588 4.33002Z" fill="#3AC63A"/>
<path fill-rule="evenodd" clip-rule="evenodd" d="M12.8955 4.83075L9.83836 3.34009L6.92352 4.85423L9.90724 6.38506L12.8955 4.83075Z" fill="#3AC63A"/>
<path fill-rule="evenodd" clip-rule="evenodd" d="M5.80432 8.5199L8.92819 6.89452L5.93831 5.36597L2.70794 7.04423L2.70331 7.04139L2.85335 10.576L5.89567 12.2647L5.80432 8.5199Z" fill="#3AC63A"/>
<path fill-rule="evenodd" clip-rule="evenodd" d="M5.91537 13.0598L2.88654 11.3562L3.03407 14.8416L6.0008 16.5691L5.91537 13.0598Z" fill="#3AC63A"/>
<path fill-rule="evenodd" clip-rule="evenodd" d="M6.02597 17.5923L3.07776 15.8818L3.21681 19.1561L6.2412 20.9858L6.10601 20.8931L6.02597 17.5923Z" fill="#3AC63A"/>
<path fill-rule="evenodd" clip-rule="evenodd" d="M7.09686 21.5035L10.16 23.3564V19.9916L7.039 18.1809L7.09686 21.5035Z" fill="#3AC63A"/>
<path fill-rule="evenodd" clip-rule="evenodd" d="M11.0337 20.4989L11.0225 23.8789L14.2135 25.8094L17.192 23.8L17.2944 20.49L14.3428 22.4192L11.0337 20.4989Z" fill="#3AC63A"/>
<path fill-rule="evenodd" clip-rule="evenodd" d="M17.967 23.2771L20.9011 21.2981L21.0614 18.0271L18.1166 19.9525L17.967 23.2771Z" fill="#3AC63A"/>
<path fill-rule="evenodd" clip-rule="evenodd" d="M21.7187 20.7471L24.3911 18.9445L24.6331 15.6926L21.9148 17.4696L21.7187 20.7471Z" fill="#3AC63A"/>
<path fill-rule="evenodd" clip-rule="evenodd" d="M21.9769 16.4358L24.6503 14.7064L24.9668 11.207L22.186 12.9324L21.9769 16.4358Z" fill="#3AC63A"/>
<path fill-rule="evenodd" clip-rule="evenodd" d="M18.163 18.9027L21.1116 16.9953L21.283 13.4929L18.3235 15.3298L18.163 18.9027Z" fill="#3AC63A"/>
<path fill-rule="evenodd" clip-rule="evenodd" d="M15.1548 9.07827L18.5261 10.8082L18.3612 14.4846L21.3237 12.6658L21.5017 9.02859L18.1338 7.38599L15.1548 9.07827Z" fill="#3AC63A"/>
<path fill-rule="evenodd" clip-rule="evenodd" d="M10.9854 6.93841L14.2655 8.62176L17.2069 6.93346L13.9419 5.34106L10.9854 6.93841Z" fill="#3AC63A"/>
<path fill-rule="evenodd" clip-rule="evenodd" d="M10.0265 7.45605L6.88202 9.15571L6.94624 12.848L10.1598 14.631V10.9778L13.342 9.15149L10.0265 7.45605Z" fill="#3AC63A"/>
<path fill-rule="evenodd" clip-rule="evenodd" d="M7.0218 17.1636L10.1601 18.991V15.4473L6.96063 13.6477L7.0218 17.1636Z" fill="#3AC63A"/>
<path fill-rule="evenodd" clip-rule="evenodd" d="M11.0501 15.9478L11.0379 19.5025L14.3001 21.4019L17.3268 19.4439L17.4369 15.8801L14.3431 17.8006L11.0501 15.9478Z" fill="#3AC63A"/>
<path fill-rule="evenodd" clip-rule="evenodd" d="M11.0653 11.4016L11.0526 15.1265L14.3428 16.9526L17.4628 15.0369L17.5772 11.3167L14.2282 9.60474L11.0653 11.4016Z" fill="#3AC63A"/>
</svg>
