<svg width="27" height="27" viewBox="0 0 27 27" fill="none" xmlns="http://www.w3.org/2000/svg">
<g clip-path="url(#clip0_870_2683)">
<path fill-rule="evenodd" clip-rule="evenodd" d="M21.4158 6.02905L18.554 7.65482L21.9506 9.31145L21.7363 12.8971L24.5279 11.1824L24.7927 7.61897L24.7968 7.61651L21.4158 6.02905Z" fill="#36D6E0"/>
<path fill-rule="evenodd" clip-rule="evenodd" d="M17.6217 7.20067L20.4412 5.58286L20.691 5.68898L17.251 4.07422L14.3855 5.62247L17.6217 7.20067Z" fill="#36D6E0"/>
<path fill-rule="evenodd" clip-rule="evenodd" d="M13.3587 5.12152L16.2635 3.61024L13.1531 2.1499L10.2412 3.66254L10.307 3.63298L13.3587 5.12152Z" fill="#36D6E0"/>
<path fill-rule="evenodd" clip-rule="evenodd" d="M12.3956 5.62225L9.33842 4.13159L6.42358 5.64573L9.4073 7.17657L12.3956 5.62225Z" fill="#36D6E0"/>
<path fill-rule="evenodd" clip-rule="evenodd" d="M5.30438 9.31141L8.42825 7.68602L5.43837 6.15747L2.208 7.83573L2.20337 7.83289L2.35341 11.3675L5.39573 13.0562L5.30438 9.31141Z" fill="#36D6E0"/>
<path fill-rule="evenodd" clip-rule="evenodd" d="M5.41556 13.8513L2.38672 12.1477L2.53426 15.6331L5.50098 17.3606L5.41556 13.8513Z" fill="#36D6E0"/>
<path fill-rule="evenodd" clip-rule="evenodd" d="M5.5261 18.3838L2.57788 16.6733L2.71693 19.9476L5.74133 21.7773L5.60613 21.6846L5.5261 18.3838Z" fill="#36D6E0"/>
<path fill-rule="evenodd" clip-rule="evenodd" d="M6.59693 22.295L9.66008 24.1479V20.7831L6.53906 18.9724L6.59693 22.295Z" fill="#36D6E0"/>
<path fill-rule="evenodd" clip-rule="evenodd" d="M10.5339 21.2904L10.5227 24.6704L13.7137 26.6009L16.6922 24.5915L16.7946 21.2815L13.8429 23.2107L10.5339 21.2904Z" fill="#36D6E0"/>
<path fill-rule="evenodd" clip-rule="evenodd" d="M17.467 24.0686L20.4012 22.0896L20.5614 18.8186L17.6167 20.744L17.467 24.0686Z" fill="#36D6E0"/>
<path fill-rule="evenodd" clip-rule="evenodd" d="M21.2188 21.5386L23.8912 19.736L24.1332 16.4841L21.4149 18.2611L21.2188 21.5386Z" fill="#36D6E0"/>
<path fill-rule="evenodd" clip-rule="evenodd" d="M21.4771 17.2273L24.1504 15.4979L24.4669 11.9985L21.6861 13.724L21.4771 17.2273Z" fill="#36D6E0"/>
<path fill-rule="evenodd" clip-rule="evenodd" d="M17.6631 19.6942L20.6117 17.7868L20.7831 14.2844L17.8236 16.1213L17.6631 19.6942Z" fill="#36D6E0"/>
<path fill-rule="evenodd" clip-rule="evenodd" d="M14.6548 9.86977L18.0261 11.5998L17.8612 15.2761L20.8237 13.4573L21.0017 9.8201L17.6338 8.17749L14.6548 9.86977Z" fill="#36D6E0"/>
<path fill-rule="evenodd" clip-rule="evenodd" d="M10.4854 7.72991L13.7655 9.41327L16.7069 7.72496L13.4419 6.13257L10.4854 7.72991Z" fill="#36D6E0"/>
<path fill-rule="evenodd" clip-rule="evenodd" d="M9.5266 8.24756L6.38208 9.94722L6.4463 13.6395L9.65989 15.4226V11.7693L12.842 9.943L9.5266 8.24756Z" fill="#36D6E0"/>
<path fill-rule="evenodd" clip-rule="evenodd" d="M6.52186 17.9551L9.66021 19.7825V16.2388L6.46069 14.4392L6.52186 17.9551Z" fill="#36D6E0"/>
<path fill-rule="evenodd" clip-rule="evenodd" d="M10.55 16.7393L10.5378 20.294L13.8 22.1934L16.8267 20.2355L16.9368 16.6716L13.843 18.5921L10.55 16.7393Z" fill="#36D6E0"/>
<path fill-rule="evenodd" clip-rule="evenodd" d="M10.5655 12.1931L10.5527 15.918L13.8429 17.7441L16.9629 15.8284L17.0773 12.1082L13.7283 10.3962L10.5655 12.1931Z" fill="#36D6E0"/>
</g>
<defs>
<clipPath id="clip0_870_2683">
<rect width="27" height="26" fill="white" transform="translate(0 0.791504)"/>
</clipPath>
</defs>
</svg>
