<svg width="27" height="26" viewBox="0 0 27 26" fill="none" xmlns="http://www.w3.org/2000/svg">
<path fill-rule="evenodd" clip-rule="evenodd" d="M21.4158 5.23755L18.554 6.86332L21.9506 8.51995L21.7363 12.1056L24.5279 10.3909L24.7927 6.82747L24.7968 6.82501L21.4158 5.23755Z" fill="#FBFBFB"/>
<path fill-rule="evenodd" clip-rule="evenodd" d="M17.6215 6.40917L20.4411 4.79135L20.6908 4.89747L17.2508 3.28271L14.3854 4.83096L17.6215 6.40917Z" fill="#FBFBFB"/>
<path fill-rule="evenodd" clip-rule="evenodd" d="M13.3588 4.33002L16.2637 2.81874L13.1533 1.3584L10.2413 2.87104L10.3071 2.84147L13.3588 4.33002Z" fill="#FBFBFB"/>
<path fill-rule="evenodd" clip-rule="evenodd" d="M12.3956 4.83075L9.33842 3.34009L6.42358 4.85423L9.4073 6.38506L12.3956 4.83075Z" fill="#FBFBFB"/>
<path fill-rule="evenodd" clip-rule="evenodd" d="M5.30438 8.5199L8.42825 6.89452L5.43837 5.36597L2.208 7.04423L2.20337 7.04139L2.35341 10.576L5.39573 12.2647L5.30438 8.5199Z" fill="#FBFBFB"/>
<path fill-rule="evenodd" clip-rule="evenodd" d="M5.41544 13.0598L2.3866 11.3562L2.53413 14.8416L5.50086 16.5691L5.41544 13.0598Z" fill="#FBFBFB"/>
<path fill-rule="evenodd" clip-rule="evenodd" d="M5.5261 17.5923L2.57788 15.8818L2.71693 19.1561L5.74133 20.9858L5.60613 20.8931L5.5261 17.5923Z" fill="#FBFBFB"/>
<path fill-rule="evenodd" clip-rule="evenodd" d="M6.59693 21.5035L9.66008 23.3564V19.9916L6.53906 18.1809L6.59693 21.5035Z" fill="#FBFBFB"/>
<path fill-rule="evenodd" clip-rule="evenodd" d="M10.5338 20.4989L10.5226 23.8789L13.7136 25.8094L16.6921 23.8L16.7945 20.49L13.8428 22.4192L10.5338 20.4989Z" fill="#FBFBFB"/>
<path fill-rule="evenodd" clip-rule="evenodd" d="M17.467 23.2771L20.4012 21.2981L20.5614 18.0271L17.6167 19.9525L17.467 23.2771Z" fill="#FBFBFB"/>
<path fill-rule="evenodd" clip-rule="evenodd" d="M21.2188 20.7471L23.8912 18.9445L24.1332 15.6926L21.4149 17.4696L21.2188 20.7471Z" fill="#FBFBFB"/>
<path fill-rule="evenodd" clip-rule="evenodd" d="M21.4769 16.4358L24.1503 14.7064L24.4668 11.207L21.686 12.9324L21.4769 16.4358Z" fill="#FBFBFB"/>
<path fill-rule="evenodd" clip-rule="evenodd" d="M17.6631 18.9027L20.6117 16.9953L20.7831 13.4929L17.8236 15.3298L17.6631 18.9027Z" fill="#FBFBFB"/>
<path fill-rule="evenodd" clip-rule="evenodd" d="M14.6548 9.07827L18.0261 10.8082L17.8612 14.4846L20.8237 12.6658L21.0017 9.02859L17.6338 7.38599L14.6548 9.07827Z" fill="#FBFBFB"/>
<path fill-rule="evenodd" clip-rule="evenodd" d="M10.4855 6.93841L13.7656 8.62176L16.7071 6.93346L13.442 5.34106L10.4855 6.93841Z" fill="#FBFBFB"/>
<path fill-rule="evenodd" clip-rule="evenodd" d="M9.5266 7.45605L6.38208 9.15571L6.4463 12.848L9.65989 14.631V10.9778L12.842 9.15149L9.5266 7.45605Z" fill="#FBFBFB"/>
<path fill-rule="evenodd" clip-rule="evenodd" d="M6.52186 17.1636L9.66021 18.991V15.4473L6.46069 13.6477L6.52186 17.1636Z" fill="#FBFBFB"/>
<path fill-rule="evenodd" clip-rule="evenodd" d="M10.5501 15.9478L10.538 19.5025L13.8001 21.4019L16.8268 19.4439L16.937 15.8801L13.8432 17.8006L10.5501 15.9478Z" fill="#FBFBFB"/>
<path fill-rule="evenodd" clip-rule="evenodd" d="M10.5653 11.4016L10.5526 15.1265L13.8428 16.9526L16.9628 15.0369L17.0772 11.3167L13.7282 9.60474L10.5653 11.4016Z" fill="#FBFBFB"/>
</svg>
