<svg width="221" height="240" viewBox="0 0 221 240" fill="none" xmlns="http://www.w3.org/2000/svg">
<path fill-rule="evenodd" clip-rule="evenodd" d="M187.584 38.3606L159.642 54.222L192.806 70.3844L190.714 105.366L217.97 88.6379L220.555 53.8722L220.595 53.8482L187.584 38.3606Z" fill="#FBFBFB" fill-opacity="0.08"/>
<path fill-rule="evenodd" clip-rule="evenodd" d="M150.538 49.791L178.068 34.0072L180.506 35.0425L146.919 19.2886L118.941 34.3936L150.538 49.791Z" fill="#FBFBFB" fill-opacity="0.08"/>
<path fill-rule="evenodd" clip-rule="evenodd" d="M108.918 29.507L137.28 14.7626L106.911 0.515137L78.48 15.2728L79.1221 14.9844L108.918 29.507Z" fill="#FBFBFB" fill-opacity="0.08"/>
<path fill-rule="evenodd" clip-rule="evenodd" d="M99.5135 34.3934L69.6642 19.8501L41.2046 34.6224L70.3366 49.5576L99.5135 34.3934Z" fill="#FBFBFB" fill-opacity="0.08"/>
<path fill-rule="evenodd" clip-rule="evenodd" d="M30.2773 70.3845L60.7779 54.5269L31.5856 39.614L0.0451919 55.9875L0 55.9598L1.46499 90.4443L31.1692 106.92L30.2773 70.3845Z" fill="#FBFBFB" fill-opacity="0.08"/>
<path fill-rule="evenodd" clip-rule="evenodd" d="M31.362 114.676L1.78931 98.0554L3.22981 132.06L32.196 148.914L31.362 114.676Z" fill="#FBFBFB" fill-opacity="0.08"/>
<path fill-rule="evenodd" clip-rule="evenodd" d="M32.4415 158.897L3.65601 142.209L5.01365 174.154L34.5429 192.005L33.2229 191.1L32.4415 158.897Z" fill="#FBFBFB" fill-opacity="0.08"/>
<path fill-rule="evenodd" clip-rule="evenodd" d="M42.8975 197.055L72.8051 215.133V182.305L42.3325 164.639L42.8975 197.055Z" fill="#FBFBFB" fill-opacity="0.08"/>
<path fill-rule="evenodd" clip-rule="evenodd" d="M81.3355 187.253L81.2263 220.229L112.382 239.063L141.463 219.46L142.463 187.166L113.644 205.988L81.3355 187.253Z" fill="#FBFBFB" fill-opacity="0.08"/>
<path fill-rule="evenodd" clip-rule="evenodd" d="M149.03 214.359L177.678 195.052L179.243 163.139L150.491 181.923L149.03 214.359Z" fill="#FBFBFB" fill-opacity="0.08"/>
<path fill-rule="evenodd" clip-rule="evenodd" d="M185.66 189.677L211.753 172.09L214.116 140.364L187.575 157.701L185.66 189.677Z" fill="#FBFBFB" fill-opacity="0.08"/>
<path fill-rule="evenodd" clip-rule="evenodd" d="M188.182 147.614L214.284 130.741L217.374 96.6003L190.223 113.434L188.182 147.614Z" fill="#FBFBFB" fill-opacity="0.08"/>
<path fill-rule="evenodd" clip-rule="evenodd" d="M150.944 171.681L179.733 153.073L181.407 118.903L152.511 136.823L150.944 171.681Z" fill="#FBFBFB" fill-opacity="0.08"/>
<path fill-rule="evenodd" clip-rule="evenodd" d="M121.573 75.8323L154.489 92.7104L152.879 128.578L181.804 110.833L183.542 75.3477L150.659 59.322L121.573 75.8323Z" fill="#FBFBFB" fill-opacity="0.08"/>
<path fill-rule="evenodd" clip-rule="evenodd" d="M80.8635 54.9547L112.89 71.3779L141.609 54.9064L109.73 39.3706L80.8635 54.9547Z" fill="#FBFBFB" fill-opacity="0.08"/>
<path fill-rule="evenodd" clip-rule="evenodd" d="M71.5019 60.0049L40.7998 76.5871L41.4269 112.61L72.8033 130.006V94.3635L103.873 76.546L71.5019 60.0049Z" fill="#FBFBFB" fill-opacity="0.08"/>
<path fill-rule="evenodd" clip-rule="evenodd" d="M42.1644 154.713L72.8062 172.542V137.968L41.5671 120.411L42.1644 154.713Z" fill="#FBFBFB" fill-opacity="0.08"/>
<path fill-rule="evenodd" clip-rule="evenodd" d="M81.4948 142.852L81.3762 177.533L113.227 196.064L142.779 176.962L143.854 142.192L113.647 160.928L81.4948 142.852Z" fill="#FBFBFB" fill-opacity="0.08"/>
<path fill-rule="evenodd" clip-rule="evenodd" d="M81.6443 98.4988L81.52 134.84L113.644 152.655L144.107 133.965L145.224 97.6705L112.526 80.968L81.6443 98.4988Z" fill="#FBFBFB" fill-opacity="0.08"/>
</svg>
