<svg width="27" height="26" viewBox="0 0 27 26" fill="none" xmlns="http://www.w3.org/2000/svg">
<path fill-rule="evenodd" clip-rule="evenodd" d="M21.4157 5.23755L18.5539 6.86332L21.9505 8.51995L21.7362 12.1056L24.5278 10.3909L24.7926 6.82747L24.7967 6.82501L21.4157 5.23755Z" fill="#F3753A"/>
<path fill-rule="evenodd" clip-rule="evenodd" d="M17.6215 6.40917L20.4411 4.79135L20.6908 4.89747L17.2508 3.28271L14.3853 4.83096L17.6215 6.40917Z" fill="#F3753A"/>
<path fill-rule="evenodd" clip-rule="evenodd" d="M13.3588 4.33002L16.2636 2.81874L13.1532 1.3584L10.2413 2.87104L10.307 2.84147L13.3588 4.33002Z" fill="#F3753A"/>
<path fill-rule="evenodd" clip-rule="evenodd" d="M12.3955 4.83075L9.33836 3.34009L6.42352 4.85423L9.40724 6.38506L12.3955 4.83075Z" fill="#F3753A"/>
<path fill-rule="evenodd" clip-rule="evenodd" d="M5.30432 8.5199L8.42819 6.89452L5.43831 5.36597L2.20794 7.04423L2.20331 7.04139L2.35335 10.576L5.39567 12.2647L5.30432 8.5199Z" fill="#F3753A"/>
<path fill-rule="evenodd" clip-rule="evenodd" d="M5.4154 13.0598L2.38657 11.3562L2.5341 14.8416L5.50083 16.5691L5.4154 13.0598Z" fill="#F3753A"/>
<path fill-rule="evenodd" clip-rule="evenodd" d="M5.526 17.5923L2.57779 15.8818L2.71684 19.1561L5.74123 20.9858L5.60604 20.8931L5.526 17.5923Z" fill="#F3753A"/>
<path fill-rule="evenodd" clip-rule="evenodd" d="M6.59686 21.5035L9.66002 23.3564V19.9916L6.539 18.1809L6.59686 21.5035Z" fill="#F3753A"/>
<path fill-rule="evenodd" clip-rule="evenodd" d="M10.5337 20.4989L10.5226 23.8789L13.7136 25.8094L16.6921 23.8L16.7945 20.49L13.8428 22.4192L10.5337 20.4989Z" fill="#F3753A"/>
<path fill-rule="evenodd" clip-rule="evenodd" d="M17.467 23.2771L20.4011 21.2981L20.5614 18.0271L17.6166 19.9525L17.467 23.2771Z" fill="#F3753A"/>
<path fill-rule="evenodd" clip-rule="evenodd" d="M21.2187 20.7471L23.8911 18.9445L24.1331 15.6926L21.4148 17.4696L21.2187 20.7471Z" fill="#F3753A"/>
<path fill-rule="evenodd" clip-rule="evenodd" d="M21.4769 16.4358L24.1503 14.7064L24.4668 11.207L21.686 12.9324L21.4769 16.4358Z" fill="#F3753A"/>
<path fill-rule="evenodd" clip-rule="evenodd" d="M17.663 18.9027L20.6116 16.9953L20.783 13.4929L17.8235 15.3298L17.663 18.9027Z" fill="#F3753A"/>
<path fill-rule="evenodd" clip-rule="evenodd" d="M14.6548 9.07827L18.0261 10.8082L17.8612 14.4846L20.8237 12.6658L21.0017 9.02859L17.6338 7.38599L14.6548 9.07827Z" fill="#F3753A"/>
<path fill-rule="evenodd" clip-rule="evenodd" d="M10.4854 6.93841L13.7655 8.62176L16.7069 6.93346L13.4419 5.34106L10.4854 6.93841Z" fill="#F3753A"/>
<path fill-rule="evenodd" clip-rule="evenodd" d="M9.52657 7.45605L6.38205 9.15571L6.44627 12.848L9.65986 14.631V10.9778L12.842 9.15149L9.52657 7.45605Z" fill="#F3753A"/>
<path fill-rule="evenodd" clip-rule="evenodd" d="M6.5218 17.1636L9.66015 18.991V15.4473L6.46063 13.6477L6.5218 17.1636Z" fill="#F3753A"/>
<path fill-rule="evenodd" clip-rule="evenodd" d="M10.55 15.9478L10.5379 19.5025L13.8 21.4019L16.8268 19.4439L16.9369 15.8801L13.8431 17.8006L10.55 15.9478Z" fill="#F3753A"/>
<path fill-rule="evenodd" clip-rule="evenodd" d="M10.5653 11.4016L10.5526 15.1265L13.8428 16.9526L16.9628 15.0369L17.0772 11.3167L13.7282 9.60474L10.5653 11.4016Z" fill="#F3753A"/>
</svg>
